<?xml version="1.0" standalone="no"?>
<!DOCTYPE svg PUBLIC "-//W3C//DTD SVG 20010904//EN"
 "http://www.w3.org/TR/2001/REC-SVG-20010904/DTD/svg10.dtd">
<svg version="1.0" xmlns="http://www.w3.org/2000/svg"
 width="1024.000000pt" height="768.000000pt" viewBox="0 0 1024.000000 768.000000"
 preserveAspectRatio="xMidYMid meet">

<g transform="translate(0.000000,768.000000) scale(0.100000,-0.100000)"
fill="#000000" stroke="none">
<path d="M6140 5853 c0 -615 0 -616 -20 -598 -18 16 -20 16 -20 2 0 -16 -40
-17 -485 -17 -445 0 -485 1 -485 17 0 14 -2 14 -20 -2 -11 -10 -20 -23 -20
-30 0 -7 9 -20 20 -30 18 -16 20 -16 20 -2 0 16 40 17 485 17 445 0 485 -1
485 -17 0 -14 2 -14 20 2 20 18 20 17 20 -868 l0 -887 172 0 c170 0 171 0 153
-20 -16 -18 -16 -20 -2 -20 16 0 17 -29 17 -320 l0 -320 -325 0 -325 0 0 -650
0 -650 680 0 680 0 0 650 0 650 -340 0 -340 0 0 320 c0 291 1 320 17 320 14 0
14 2 -2 20 -18 20 -17 20 400 20 417 0 418 0 400 -20 -16 -18 -16 -20 -2 -20
16 0 17 -60 17 -765 l0 -765 225 0 225 0 0 -125 0 -125 685 0 685 0 0 200 0
200 -685 0 -685 0 0 -60 0 -60 -210 0 -210 0 0 750 c0 691 1 750 17 750 14 0
14 2 -2 20 -18 20 -17 20 90 20 107 0 108 0 90 -20 -16 -18 -16 -20 -2 -20 16
0 17 -34 17 -400 l0 -400 110 0 110 0 0 -120 0 -120 680 0 680 0 0 225 0 225
-680 0 -680 0 0 -90 0 -90 -95 0 -95 0 0 385 c0 352 1 385 17 385 14 0 14 2
-2 20 -18 20 -17 20 148 20 l167 0 0 1515 0 1515 -900 0 -900 0 0 -617z m1750
-898 l0 -1465 -850 0 -850 0 0 1465 0 1465 850 0 850 0 0 -1465z m1220 -2370
l0 -175 -630 0 -630 0 0 175 0 175 630 0 630 0 0 -175z m-1970 -475 l0 -600
-630 0 -630 0 0 600 0 600 630 0 630 0 0 -600z m1970 -290 l0 -150 -635 0
-635 0 0 150 0 150 635 0 635 0 0 -150z"/>
<path d="M6420 5155 c0 -87 3 -105 15 -105 11 0 15 11 15 40 0 29 4 40 15 40
11 0 15 -11 15 -40 0 -34 3 -40 21 -40 11 0 17 4 14 10 -4 6 -7 50 -6 98 0 95
-4 102 -56 102 l-33 0 0 -105z m60 40 c0 -24 -5 -35 -15 -35 -10 0 -15 11 -15
35 0 24 5 35 15 35 10 0 15 -11 15 -35z"/>
<path d="M6552 5198 c-25 -150 -25 -148 -8 -148 9 0 16 8 16 20 0 13 7 20 19
20 11 0 23 -9 26 -20 9 -29 39 -27 32 3 -3 12 -11 59 -17 105 -11 75 -14 82
-35 82 -20 0 -24 -7 -33 -62z m41 -35 c4 -33 2 -43 -9 -43 -15 0 -18 29 -8 68
8 29 10 26 17 -25z"/>
<path d="M6666 5244 c-24 -24 -19 -48 19 -94 19 -23 35 -46 35 -50 0 -18 -24
-22 -35 -7 -15 21 -35 22 -35 3 0 -20 28 -46 50 -46 24 0 50 26 50 50 0 10
-16 37 -35 60 -19 23 -35 46 -35 50 0 18 24 22 35 7 15 -21 35 -22 35 -3 0 20
-28 46 -50 46 -10 0 -26 -7 -34 -16z"/>
<path d="M6770 5155 c0 -87 3 -105 15 -105 11 0 15 11 15 40 0 32 4 40 18 40
29 0 42 21 42 65 0 50 -13 65 -57 65 l-33 0 0 -105z m60 40 c0 -24 -5 -35 -15
-35 -10 0 -15 11 -15 35 0 24 5 35 15 35 10 0 15 -11 15 -35z"/>
<path d="M6880 5155 l0 -105 34 0 c47 0 70 24 61 64 -3 17 -6 51 -5 74 1 54
-13 72 -56 72 l-34 0 0 -105z m58 48 c-4 -39 -28 -42 -28 -4 0 21 5 31 16 31
11 0 14 -8 12 -27z m7 -83 c8 -24 -1 -40 -21 -40 -9 0 -14 11 -14 30 0 35 25
42 35 10z"/>
<path d="M7000 5155 l0 -105 40 0 c29 0 40 4 40 15 0 9 -9 15 -25 15 -21 0
-25 5 -25 30 0 23 4 30 20 30 11 0 20 7 20 15 0 8 -9 15 -20 15 -16 0 -20 7
-20 30 0 25 4 30 25 30 16 0 25 6 25 15 0 11 -11 15 -40 15 l-40 0 0 -105z"/>
<path d="M7110 5155 c0 -87 3 -105 15 -105 11 0 15 11 15 41 0 52 24 48 28 -4
2 -24 8 -37 18 -37 16 0 20 75 4 85 -7 4 -7 12 0 25 14 26 13 73 -2 88 -7 7
-27 12 -45 12 l-33 0 0 -105z m55 40 c0 -16 -6 -30 -12 -32 -9 -3 -13 7 -13
32 0 25 4 35 13 33 6 -3 12 -17 12 -33z"/>
<path d="M7220 5155 c0 -87 3 -105 15 -105 11 0 15 11 15 40 0 28 4 40 14 40
16 0 26 -21 26 -56 0 -15 6 -24 16 -24 13 0 15 8 10 43 -8 60 -8 58 -1 98 9
45 -12 69 -61 69 l-34 0 0 -105z m65 56 c7 -24 -4 -51 -21 -51 -9 0 -14 12
-14 35 0 38 24 50 35 16z"/>
<path d="M7330 5253 c0 -5 9 -37 20 -73 11 -36 20 -80 20 -97 0 -23 5 -33 15
-33 11 0 15 11 15 38 0 20 9 66 20 102 11 36 20 66 20 68 0 1 -6 2 -14 2 -9 0
-20 -19 -28 -47 l-14 -48 -12 48 c-8 29 -18 47 -27 47 -8 0 -15 -3 -15 -7z"/>
<path d="M7500 5155 c0 -87 3 -105 15 -105 11 0 15 11 15 40 0 32 4 40 18 40
29 0 42 21 42 65 0 50 -13 65 -57 65 l-33 0 0 -105z m60 40 c0 -24 -5 -35 -15
-35 -10 0 -15 11 -15 35 0 24 5 35 15 35 10 0 15 -11 15 -35z"/>
<path d="M7610 5155 c0 -87 3 -105 15 -105 12 0 15 18 15 105 0 87 -3 105 -15
105 -12 0 -15 -18 -15 -105z"/>
<path d="M6660 4805 c0 -87 3 -105 15 -105 11 0 15 11 15 40 0 32 4 40 18 40
29 0 42 21 42 65 0 50 -13 65 -57 65 l-33 0 0 -105z m60 40 c0 -24 -5 -35 -15
-35 -10 0 -15 11 -15 35 0 24 5 35 15 35 10 0 15 -11 15 -35z"/>
<path d="M6770 4805 c0 -87 3 -105 15 -105 12 0 15 18 15 105 0 87 -3 105 -15
105 -12 0 -15 -18 -15 -105z"/>
<path d="M6836 4894 c-12 -11 -16 -35 -16 -89 0 -54 4 -78 16 -89 32 -33 84
-8 84 40 0 31 -27 32 -32 2 -2 -13 -10 -23 -18 -23 -20 0 -22 136 -2 143 7 2
16 -5 19 -17 7 -26 33 -28 33 -2 0 25 -26 51 -50 51 -10 0 -26 -7 -34 -16z"/>
<path d="M6952 4898 c-7 -7 -12 -43 -12 -93 0 -85 8 -105 45 -105 37 0 45 20
45 105 0 85 -8 105 -45 105 -12 0 -26 -5 -33 -12z m48 -93 c0 -60 -3 -75 -15
-75 -12 0 -15 15 -15 75 0 60 3 75 15 75 12 0 15 -15 15 -75z"/>
<path d="M7110 4891 c-15 -28 -12 -51 5 -51 8 0 15 9 15 20 0 11 7 20 15 20
25 0 17 -47 -15 -92 -16 -22 -30 -52 -30 -65 0 -21 4 -23 45 -23 33 0 45 4 45
15 0 10 -10 15 -30 15 -37 0 -37 5 0 54 32 42 39 93 18 114 -18 18 -56 14 -68
-7z"/>
<path d="M7266 4808 c7 -57 13 -104 13 -105 1 -2 10 -3 21 -3 15 0 20 7 21 28
0 15 4 36 9 47 6 15 9 8 9 -27 1 -44 3 -48 25 -48 22 0 24 4 30 78 4 42 9 89
12 105 4 19 2 27 -9 27 -11 0 -17 -20 -24 -77 l-9 -78 -8 78 c-12 114 -46 102
-46 -17 0 -67 -12 -51 -19 26 -4 46 -10 64 -22 66 -13 2 -14 -8 -3 -100z"/>
<path d="M8180 2585 l0 -105 31 0 c49 0 69 16 69 55 0 18 -4 36 -9 39 -5 3 -6
26 -3 52 6 52 -4 64 -55 64 l-33 0 0 -105z m60 45 c0 -20 -5 -30 -15 -30 -10
0 -15 10 -15 30 0 20 5 30 15 30 10 0 15 -10 15 -30z m5 -90 c0 -16 -6 -26
-17 -28 -14 -3 -18 3 -18 28 0 25 4 31 18 28 11 -2 17 -12 17 -28z"/>
<path d="M8300 2597 c0 -99 7 -117 47 -117 33 0 43 29 43 124 0 70 -3 86 -15
86 -12 0 -15 -17 -15 -90 0 -73 -3 -90 -15 -90 -12 0 -15 17 -15 90 0 73 -3
90 -15 90 -12 0 -15 -17 -15 -93z"/>
<path d="M8410 2675 c0 -8 7 -15 15 -15 12 0 15 -17 15 -90 0 -73 3 -90 15
-90 12 0 15 17 15 90 0 73 3 90 15 90 8 0 15 7 15 15 0 11 -12 15 -45 15 -33
0 -45 -4 -45 -15z"/>
<path d="M8510 2675 c0 -8 7 -15 15 -15 12 0 15 -17 15 -90 0 -73 3 -90 15
-90 12 0 15 17 15 90 0 83 1 90 20 90 11 0 20 7 20 15 0 11 -12 15 -50 15 -38
0 -50 -4 -50 -15z"/>
<path d="M8636 2674 c-12 -11 -16 -35 -16 -89 0 -78 13 -105 50 -105 37 0 50
27 50 105 0 78 -13 105 -50 105 -10 0 -26 -7 -34 -16z m49 -90 c0 -55 -3 -69
-15 -69 -11 0 -16 15 -18 59 -3 66 2 90 21 83 8 -2 12 -26 12 -73z"/>
<path d="M8740 2585 c0 -87 3 -105 15 -105 12 0 15 15 16 68 l1 67 17 -65 c12
-44 22 -66 34 -68 15 -3 17 8 17 102 0 88 -3 106 -15 106 -11 0 -15 -13 -16
-52 -1 -57 -2 -56 -19 10 -8 31 -16 42 -30 42 -19 0 -20 -7 -20 -105z"/>
<path d="M6150 2110 c0 -73 -3 -90 -15 -90 -8 0 -15 -7 -15 -15 0 -18 31 -20
48 -3 8 8 12 46 12 105 0 76 -3 93 -15 93 -12 0 -15 -17 -15 -90z"/>
<path d="M6216 2184 c-12 -11 -16 -35 -16 -89 0 -78 13 -105 50 -105 37 0 50
27 50 105 0 78 -13 105 -50 105 -10 0 -26 -7 -34 -16z m49 -90 c0 -55 -3 -69
-15 -69 -11 0 -16 15 -18 59 -3 66 2 90 21 83 8 -2 12 -26 12 -73z"/>
<path d="M6310 2193 c0 -5 9 -37 20 -73 11 -36 20 -80 20 -97 0 -23 5 -33 15
-33 11 0 15 11 15 38 0 20 9 66 20 102 11 36 20 66 20 68 0 1 -6 2 -14 2 -9 0
-20 -19 -28 -47 l-14 -48 -12 48 c-8 29 -18 47 -27 47 -8 0 -15 -3 -15 -7z"/>
<path d="M6442 2188 c-22 -22 -14 -69 18 -105 17 -18 30 -38 30 -43 0 -18 -23
-23 -35 -7 -16 22 -25 21 -25 -1 0 -39 45 -55 74 -26 24 24 19 57 -14 94 -32
36 -39 70 -15 70 8 0 15 -7 15 -15 0 -8 7 -15 15 -15 18 0 19 14 5 41 -12 21
-50 25 -68 7z"/>
<path d="M6530 2185 c0 -8 7 -15 15 -15 12 0 15 -17 15 -90 0 -73 3 -90 15
-90 12 0 15 17 15 90 0 83 1 90 20 90 11 0 20 7 20 15 0 11 -12 15 -50 15 -38
0 -50 -4 -50 -15z"/>
<path d="M6650 2095 c0 -87 3 -105 15 -105 12 0 15 18 15 105 0 87 -3 105 -15
105 -12 0 -15 -18 -15 -105z"/>
<path d="M6712 2188 c-7 -7 -12 -43 -12 -93 0 -85 8 -105 45 -105 29 0 45 19
45 52 0 18 -5 28 -15 28 -9 0 -15 -9 -15 -25 0 -16 -6 -25 -15 -25 -12 0 -15
15 -15 75 0 60 3 75 15 75 8 0 15 -9 15 -20 0 -11 7 -20 15 -20 18 0 20 41 3
58 -7 7 -21 12 -33 12 -12 0 -26 -5 -33 -12z"/>
<path d="M6810 2095 c0 -87 3 -105 15 -105 10 0 15 10 15 28 0 15 4 33 9 41 7
11 12 3 22 -27 8 -29 18 -42 30 -42 16 0 16 4 -4 59 l-22 60 23 45 c17 37 19
46 7 46 -8 0 -25 -19 -37 -42 l-23 -43 -3 43 c-2 28 -8 42 -18 42 -11 0 -14
-20 -14 -105z"/>
<path d="M8190 1815 l0 -105 31 0 c49 0 69 16 69 55 0 18 -4 36 -9 39 -5 3 -6
26 -3 52 6 52 -4 64 -55 64 l-33 0 0 -105z m60 45 c0 -20 -5 -30 -15 -30 -10
0 -15 10 -15 30 0 20 5 30 15 30 10 0 15 -10 15 -30z m5 -90 c0 -16 -6 -26
-17 -28 -14 -3 -18 3 -18 28 0 25 4 31 18 28 11 -2 17 -12 17 -28z"/>
<path d="M8310 1827 c0 -99 7 -117 47 -117 33 0 43 29 43 124 0 70 -3 86 -15
86 -12 0 -15 -17 -15 -90 0 -73 -3 -90 -15 -90 -12 0 -15 17 -15 90 0 73 -3
90 -15 90 -12 0 -15 -17 -15 -93z"/>
<path d="M8420 1905 c0 -8 7 -15 15 -15 12 0 15 -17 15 -90 0 -73 3 -90 15
-90 12 0 15 17 15 90 0 73 3 90 15 90 8 0 15 7 15 15 0 11 -12 15 -45 15 -33
0 -45 -4 -45 -15z"/>
<path d="M8520 1905 c0 -8 7 -15 15 -15 12 0 15 -17 15 -90 0 -73 3 -90 15
-90 12 0 15 17 15 90 0 83 1 90 20 90 11 0 20 7 20 15 0 11 -12 15 -50 15 -38
0 -50 -4 -50 -15z"/>
<path d="M8646 1904 c-12 -11 -16 -35 -16 -89 0 -78 13 -105 50 -105 37 0 50
27 50 105 0 78 -13 105 -50 105 -10 0 -26 -7 -34 -16z m49 -90 c0 -55 -3 -69
-15 -69 -11 0 -16 15 -18 59 -3 66 2 90 21 83 8 -2 12 -26 12 -73z"/>
<path d="M8750 1815 c0 -87 3 -105 15 -105 12 0 15 15 16 68 l1 67 17 -65 c12
-44 22 -66 34 -68 15 -3 17 8 17 102 0 88 -3 106 -15 106 -11 0 -15 -13 -16
-52 -1 -57 -2 -56 -19 10 -8 31 -16 42 -30 42 -19 0 -20 -7 -20 -105z"/>
<path d="M1790 5808 c0 -580 0 -581 -20 -563 -18 16 -20 16 -20 2 0 -16 -31
-17 -350 -17 l-350 0 0 145 0 145 -330 0 -330 0 0 -330 0 -330 330 0 330 0 0
170 0 170 350 0 c319 0 350 -1 350 -17 0 -14 2 -14 20 2 20 18 20 17 20 -395
0 -412 0 -413 -20 -395 -18 16 -20 16 -20 2 0 -16 -31 -17 -350 -17 l-350 0 0
140 0 140 -330 0 -330 0 0 -320 0 -320 330 0 330 0 0 165 0 165 350 0 c319 0
350 -1 350 -17 0 -14 2 -14 20 2 20 18 20 17 20 -428 l0 -447 387 0 c385 0
386 0 368 -20 -16 -18 -16 -20 -2 -20 15 0 17 -19 17 -180 0 -161 -2 -180 -17
-180 -14 0 -14 -2 2 -20 18 -20 17 -20 -298 -20 l-317 0 0 -670 0 -670 67 0
c65 0 66 0 48 -20 -16 -18 -16 -20 -2 -20 15 0 17 -15 17 -125 0 -110 -2 -125
-17 -125 -14 0 -14 -2 2 -20 18 -20 17 -20 -378 -20 l-397 0 0 -520 0 -520
520 0 520 0 0 520 0 520 -112 0 c-110 0 -111 0 -93 20 16 18 16 20 2 20 -15 0
-17 15 -17 125 0 110 2 125 17 125 14 0 14 2 -2 20 -18 20 -17 20 500 20 517
0 518 0 500 -20 -16 -18 -16 -20 -2 -20 15 0 17 -14 17 -110 0 -96 -2 -110
-17 -110 -14 0 -14 -2 2 -20 18 -20 17 -20 -33 -20 l-52 0 0 -510 0 -510 510
0 510 0 0 510 0 510 -447 0 c-445 0 -446 0 -428 20 16 18 16 20 2 20 -15 0
-17 14 -17 110 0 96 2 110 17 110 14 0 14 2 -2 20 -18 20 -17 20 43 20 l62 0
0 670 0 670 -342 0 c-340 0 -341 0 -323 20 16 18 16 20 2 20 -15 0 -17 19 -17
180 0 161 2 180 17 180 14 0 14 2 -2 20 -18 20 -17 20 418 20 l437 0 0 877 c0
875 0 876 20 858 18 -16 20 -16 20 -2 0 16 33 17 385 17 352 0 385 -1 385 -17
0 -14 2 -14 20 2 25 23 25 37 0 60 -18 16 -20 16 -20 2 0 -16 -33 -17 -385
-17 -352 0 -385 1 -385 17 0 14 -2 14 -20 -2 -20 -18 -20 -17 -20 558 l0 577
-835 0 -835 0 0 -582z m1620 -883 l0 -1415 -785 0 -785 0 0 1415 0 1415 785 0
785 0 0 -1415z m-2391 265 l1 -300 -300 0 -300 0 0 300 0 300 300 0 299 0 0
-300z m1 -850 l0 -290 -290 0 -290 0 0 290 0 290 290 0 290 0 0 -290z m2200
-1990 l0 -620 -620 0 -620 0 0 620 0 620 620 0 620 0 0 -620z m770 -1480 l0
-460 -460 0 -460 0 0 460 0 460 460 0 460 0 0 -460z m-1730 -40 l0 -470 -470
0 -470 0 0 470 0 470 470 0 470 0 0 -470z"/>
<path d="M1980 5185 c0 -87 3 -105 15 -105 11 0 15 11 15 40 0 29 4 40 15 40
11 0 15 -11 15 -40 0 -34 3 -40 21 -40 11 0 17 4 14 10 -4 6 -7 50 -6 98 0 95
-4 102 -56 102 l-33 0 0 -105z m60 40 c0 -24 -5 -35 -15 -35 -10 0 -15 11 -15
35 0 24 5 35 15 35 10 0 15 -11 15 -35z"/>
<path d="M2112 5228 c-25 -150 -25 -148 -8 -148 9 0 16 8 16 20 0 13 7 20 19
20 11 0 23 -9 26 -20 9 -29 39 -27 32 3 -3 12 -11 59 -17 105 -11 75 -14 82
-35 82 -20 0 -24 -7 -33 -62z m41 -35 c4 -33 2 -43 -9 -43 -15 0 -18 29 -8 68
8 29 10 26 17 -25z"/>
<path d="M2226 5274 c-24 -24 -19 -48 19 -94 19 -23 35 -46 35 -50 0 -18 -24
-22 -35 -7 -15 21 -35 22 -35 3 0 -20 28 -46 50 -46 24 0 50 26 50 50 0 10
-16 37 -35 60 -19 23 -35 46 -35 50 0 18 24 22 35 7 15 -21 35 -22 35 -3 0 20
-28 46 -50 46 -10 0 -26 -7 -34 -16z"/>
<path d="M2330 5185 c0 -87 3 -105 15 -105 11 0 15 11 15 40 0 32 4 40 18 40
29 0 42 21 42 65 0 50 -13 65 -57 65 l-33 0 0 -105z m60 40 c0 -24 -5 -35 -15
-35 -10 0 -15 11 -15 35 0 24 5 35 15 35 10 0 15 -11 15 -35z"/>
<path d="M2440 5185 l0 -105 34 0 c47 0 70 24 61 64 -3 17 -6 51 -5 74 1 54
-13 72 -56 72 l-34 0 0 -105z m60 45 c0 -20 -5 -30 -15 -30 -10 0 -15 10 -15
30 0 20 5 30 15 30 10 0 15 -10 15 -30z m5 -90 c0 -16 -6 -26 -17 -28 -14 -3
-18 3 -18 28 0 25 4 31 18 28 11 -2 17 -12 17 -28z"/>
<path d="M2560 5185 l0 -105 40 0 c29 0 40 4 40 15 0 9 -9 15 -25 15 -21 0
-25 5 -25 30 0 23 4 30 20 30 11 0 20 7 20 15 0 8 -9 15 -20 15 -16 0 -20 7
-20 30 0 25 4 30 25 30 16 0 25 6 25 15 0 11 -11 15 -40 15 l-40 0 0 -105z"/>
<path d="M2670 5185 c0 -87 3 -105 15 -105 11 0 15 11 15 41 0 52 24 48 28 -4
2 -24 8 -37 18 -37 16 0 20 75 4 85 -7 4 -7 12 0 25 14 26 13 73 -2 88 -7 7
-27 12 -45 12 l-33 0 0 -105z m55 40 c0 -16 -6 -30 -12 -32 -9 -3 -13 7 -13
32 0 25 4 35 13 33 6 -3 12 -17 12 -33z"/>
<path d="M2780 5185 c0 -87 3 -105 15 -105 11 0 15 11 15 40 0 28 4 40 14 40
16 0 26 -21 26 -56 0 -15 6 -24 16 -24 13 0 15 8 10 43 -8 60 -8 58 -1 98 9
45 -12 69 -61 69 l-34 0 0 -105z m65 56 c7 -24 -4 -51 -21 -51 -9 0 -14 12
-14 35 0 38 24 50 35 16z"/>
<path d="M2890 5283 c0 -5 9 -37 20 -73 11 -36 20 -80 20 -97 0 -23 5 -33 15
-33 11 0 15 11 15 38 0 20 9 66 20 102 11 36 20 66 20 68 0 1 -6 2 -14 2 -9 0
-20 -19 -28 -47 l-14 -48 -12 48 c-8 29 -18 47 -27 47 -8 0 -15 -3 -15 -7z"/>
<path d="M3060 5185 c0 -87 3 -105 15 -105 11 0 15 11 15 40 0 32 4 40 18 40
29 0 42 21 42 65 0 50 -13 65 -57 65 l-33 0 0 -105z m60 40 c0 -24 -5 -35 -15
-35 -10 0 -15 11 -15 35 0 24 5 35 15 35 10 0 15 -11 15 -35z"/>
<path d="M3170 5185 c0 -87 3 -105 15 -105 12 0 15 18 15 105 0 87 -3 105 -15
105 -12 0 -15 -18 -15 -105z"/>
<path d="M2220 4835 c0 -87 3 -105 15 -105 11 0 15 11 15 40 0 32 4 40 18 40
29 0 42 21 42 65 0 50 -13 65 -57 65 l-33 0 0 -105z m60 40 c0 -24 -5 -35 -15
-35 -10 0 -15 11 -15 35 0 24 5 35 15 35 10 0 15 -11 15 -35z"/>
<path d="M2330 4835 c0 -87 3 -105 15 -105 12 0 15 18 15 105 0 87 -3 105 -15
105 -12 0 -15 -18 -15 -105z"/>
<path d="M2396 4924 c-12 -11 -16 -35 -16 -89 0 -54 4 -78 16 -89 32 -33 84
-8 84 40 0 31 -27 32 -32 2 -2 -13 -10 -23 -18 -23 -20 0 -22 136 -2 143 7 2
16 -5 19 -17 7 -26 33 -28 33 -2 0 25 -26 51 -50 51 -10 0 -26 -7 -34 -16z"/>
<path d="M2512 4928 c-7 -7 -12 -43 -12 -93 0 -85 8 -105 45 -105 37 0 45 20
45 105 0 85 -8 105 -45 105 -12 0 -26 -5 -33 -12z m48 -93 c0 -60 -3 -75 -15
-75 -12 0 -15 15 -15 75 0 60 3 75 15 75 12 0 15 -15 15 -75z"/>
<path d="M2670 4921 c-15 -28 -12 -51 5 -51 8 0 15 9 15 20 0 11 7 20 15 20
25 0 17 -47 -15 -92 -16 -22 -30 -52 -30 -65 0 -21 4 -23 45 -23 33 0 45 4 45
15 0 10 -10 15 -30 15 -37 0 -37 5 0 54 32 42 39 93 18 114 -18 18 -56 14 -68
-7z"/>
<path d="M2826 4838 c7 -57 13 -104 13 -105 1 -2 10 -3 21 -3 15 0 20 7 21 28
0 15 4 36 9 47 6 15 9 8 9 -27 1 -44 3 -48 25 -48 22 0 24 4 30 78 4 42 9 89
12 105 4 19 2 27 -9 27 -11 0 -17 -20 -24 -77 l-9 -78 -8 78 c-12 114 -46 102
-46 -17 0 -67 -12 -51 -19 26 -4 46 -10 64 -22 66 -13 2 -14 -8 -3 -100z"/>
<path d="M560 5175 l0 -105 40 0 c29 0 40 4 40 15 0 9 -9 15 -25 15 -25 0 -25
1 -25 90 0 73 -3 90 -15 90 -12 0 -15 -18 -15 -105z"/>
<path d="M660 5175 l0 -105 40 0 c29 0 40 4 40 15 0 9 -9 15 -25 15 -21 0 -25
5 -25 30 0 23 4 30 20 30 11 0 20 7 20 15 0 8 -9 15 -20 15 -16 0 -20 7 -20
30 0 25 4 30 25 30 16 0 25 6 25 15 0 11 -11 15 -40 15 l-40 0 0 -105z"/>
<path d="M770 5175 l0 -105 33 0 c49 0 57 14 57 105 0 91 -8 105 -57 105 l-33
0 0 -105z m60 0 c0 -60 -3 -75 -15 -75 -12 0 -15 15 -15 75 0 60 3 75 15 75
12 0 15 -15 15 -75z"/>
<path d="M590 4335 l0 -105 40 0 c29 0 40 4 40 15 0 9 -9 15 -25 15 -25 0 -25
1 -25 90 0 73 -3 90 -15 90 -12 0 -15 -18 -15 -105z"/>
<path d="M690 4335 l0 -105 40 0 c29 0 40 4 40 15 0 9 -9 15 -25 15 -21 0 -25
5 -25 30 0 23 4 30 20 30 11 0 20 7 20 15 0 8 -9 15 -20 15 -16 0 -20 7 -20
30 0 25 4 30 25 30 16 0 25 6 25 15 0 11 -11 15 -40 15 l-40 0 0 -105z"/>
<path d="M800 4335 l0 -105 33 0 c49 0 57 14 57 105 0 91 -8 105 -57 105 l-33
0 0 -105z m60 0 c0 -60 -3 -75 -15 -75 -12 0 -15 15 -15 75 0 60 3 75 15 75
12 0 15 -15 15 -75z"/>
<path d="M2360 2555 l0 -105 40 0 c29 0 40 4 40 15 0 9 -9 15 -25 15 -25 0
-25 1 -25 90 0 73 -3 90 -15 90 -12 0 -15 -18 -15 -105z"/>
<path d="M2472 2648 c-14 -14 -16 -58 -3 -58 5 0 11 9 14 21 3 12 11 19 19 16
20 -7 12 -55 -16 -88 -15 -18 -26 -43 -26 -60 0 -28 2 -29 45 -29 33 0 45 4
45 15 0 10 -10 15 -30 15 -33 0 -40 19 -14 41 21 17 44 63 44 88 0 40 -51 66
-78 39z"/>
<path d="M2582 2648 c-17 -17 -15 -103 3 -118 8 -6 23 -9 35 -5 16 5 20 2 20
-15 0 -23 -31 -41 -38 -22 -5 16 -32 15 -32 -1 0 -36 56 -49 85 -20 22 22 18
169 -5 183 -21 13 -54 12 -68 -2z m53 -58 c0 -25 -5 -36 -17 -38 -15 -3 -18 4
-18 38 0 34 3 41 18 38 12 -2 17 -13 17 -38z"/>
<path d="M2701 2651 c-13 -8 -15 -28 -12 -91 1 -8 -1 -29 -5 -46 -7 -36 15
-64 50 -64 36 0 44 19 44 105 0 44 -5 86 -10 93 -12 14 -47 16 -67 3z m44 -51
c0 -27 -20 -38 -28 -15 -8 20 3 47 17 42 6 -2 11 -14 11 -27z m5 -90 c0 -20
-5 -30 -15 -30 -18 0 -30 24 -21 45 10 28 36 17 36 -15z"/>
<path d="M2800 2555 c0 -87 3 -105 15 -105 12 0 15 15 16 68 1 70 5 67 29 -25
6 -26 17 -43 25 -43 12 0 15 20 15 105 0 111 -17 147 -22 48 l-3 -58 -18 58
c-14 44 -22 57 -37 57 -19 0 -20 -7 -20 -105z"/>
<path d="M2280 2205 c0 -87 3 -105 15 -105 12 0 15 14 16 63 l2 62 10 -62 c8
-49 14 -63 27 -63 14 0 19 13 26 63 l9 62 3 -62 c2 -47 7 -63 17 -63 12 0 15
20 15 105 0 104 0 105 -24 105 -23 0 -25 -5 -31 -65 -4 -36 -11 -63 -15 -60
-4 3 -11 32 -15 65 -6 55 -9 60 -31 60 -24 0 -24 -1 -24 -105z"/>
<path d="M2456 2294 c-12 -11 -16 -35 -16 -89 0 -54 4 -78 16 -89 20 -21 48
-20 69 1 22 22 18 169 -5 183 -22 14 -47 12 -64 -6z m49 -90 c0 -55 -3 -69
-15 -69 -11 0 -16 15 -18 59 -3 66 2 90 21 83 8 -2 12 -26 12 -73z"/>
<path d="M2560 2205 l0 -105 33 0 c49 0 57 14 57 105 0 91 -8 105 -57 105
l-33 0 0 -105z m60 0 c0 -60 -3 -75 -15 -75 -12 0 -15 15 -15 75 0 60 3 75 15
75 12 0 15 -15 15 -75z"/>
<path d="M2680 2217 c0 -99 7 -117 47 -117 33 0 43 29 43 124 0 70 -3 86 -15
86 -12 0 -15 -17 -15 -90 0 -73 -3 -90 -15 -90 -12 0 -15 17 -15 90 0 73 -3
90 -15 90 -12 0 -15 -17 -15 -93z"/>
<path d="M2800 2205 l0 -105 40 0 c29 0 40 4 40 15 0 9 -9 15 -25 15 -25 0
-25 1 -25 90 0 73 -3 90 -15 90 -12 0 -15 -18 -15 -105z"/>
<path d="M2890 2205 l0 -105 45 0 c33 0 45 4 45 15 0 10 -10 15 -30 15 -27 0
-30 3 -30 30 0 25 4 30 25 30 16 0 25 6 25 15 0 9 -9 15 -25 15 -21 0 -25 5
-25 30 0 27 3 30 30 30 20 0 30 5 30 15 0 11 -12 15 -45 15 l-45 0 0 -105z"/>
<path d="M3270 1015 c0 -63 4 -105 10 -105 6 0 10 27 10 62 0 73 7 72 17 -3 6
-37 13 -55 24 -57 13 -2 18 11 26 60 l10 63 2 -62 c1 -49 4 -63 16 -63 12 0
15 18 15 106 0 103 0 105 -22 102 -20 -3 -24 -12 -33 -73 l-11 -70 -13 73
c-11 60 -16 72 -32 72 -17 0 -19 -8 -19 -105z"/>
<path d="M3436 1104 c-12 -11 -16 -35 -16 -89 0 -78 13 -105 50 -105 37 0 50
27 50 105 0 78 -13 105 -50 105 -10 0 -26 -7 -34 -16z m49 -90 c0 -55 -3 -69
-15 -69 -11 0 -16 15 -18 59 -3 66 2 90 21 83 8 -2 12 -26 12 -73z"/>
<path d="M3530 1105 c0 -8 7 -15 15 -15 12 0 15 -17 15 -90 0 -73 3 -90 15
-90 12 0 15 17 15 90 0 83 1 90 20 90 11 0 20 7 20 15 0 11 -12 15 -50 15 -38
0 -50 -4 -50 -15z"/>
<path d="M3656 1104 c-12 -11 -16 -35 -16 -89 0 -78 13 -105 50 -105 37 0 50
27 50 105 0 78 -13 105 -50 105 -10 0 -26 -7 -34 -16z m49 -90 c0 -55 -3 -69
-15 -69 -11 0 -16 15 -18 59 -3 66 2 90 21 83 8 -2 12 -26 12 -73z"/>
<path d="M3760 1015 c0 -87 3 -105 15 -105 11 0 15 11 15 40 0 29 4 40 15 40
11 0 15 -11 15 -40 0 -34 3 -40 21 -40 11 0 17 4 14 10 -4 6 -7 50 -6 98 0 95
-4 102 -56 102 l-33 0 0 -105z m60 40 c0 -24 -5 -35 -15 -35 -10 0 -15 11 -15
35 0 24 5 35 15 35 10 0 15 -11 15 -35z"/>
<path d="M3276 668 c7 -57 13 -104 13 -105 1 -2 10 -3 21 -3 15 0 20 7 21 28
0 15 4 36 9 47 6 15 9 8 9 -27 1 -44 3 -48 25 -48 22 0 24 4 30 78 4 42 9 89
12 105 4 19 2 27 -9 27 -11 0 -17 -20 -24 -77 l-9 -78 -8 78 c-12 114 -46 102
-46 -17 0 -67 -12 -51 -19 26 -4 46 -10 64 -22 66 -13 2 -14 -8 -3 -100z"/>
<path d="M3440 665 c0 -87 3 -105 15 -105 11 0 15 12 15 45 0 33 4 45 15 45
11 0 15 -12 15 -45 0 -33 4 -45 15 -45 12 0 15 18 15 105 0 87 -3 105 -15 105
-11 0 -15 -12 -15 -45 0 -33 -4 -45 -15 -45 -11 0 -15 12 -15 45 0 33 -4 45
-15 45 -12 0 -15 -18 -15 -105z"/>
<path d="M3560 665 l0 -105 45 0 c33 0 45 4 45 15 0 10 -10 15 -30 15 -27 0
-30 3 -30 30 0 25 4 30 25 30 16 0 25 6 25 15 0 9 -9 15 -25 15 -21 0 -25 5
-25 30 0 27 3 30 30 30 20 0 30 5 30 15 0 11 -12 15 -45 15 l-45 0 0 -105z"/>
<path d="M3670 665 l0 -105 40 0 c29 0 40 4 40 15 0 9 -9 15 -25 15 -21 0 -25
5 -25 30 0 23 4 30 20 30 11 0 20 7 20 15 0 8 -9 15 -20 15 -16 0 -20 7 -20
30 0 25 4 30 25 30 16 0 25 6 25 15 0 11 -11 15 -40 15 l-40 0 0 -105z"/>
<path d="M3780 665 l0 -105 40 0 c29 0 40 4 40 15 0 9 -9 15 -25 15 -25 0 -25
1 -25 90 0 73 -3 90 -15 90 -12 0 -15 -18 -15 -105z"/>
<path d="M1510 995 c0 -63 4 -105 10 -105 6 0 10 27 10 62 0 73 7 72 17 -3 6
-37 13 -55 24 -57 13 -2 18 11 26 60 l10 63 2 -62 c1 -49 4 -63 16 -63 12 0
15 18 15 106 0 103 0 105 -22 102 -20 -3 -24 -12 -33 -73 l-11 -70 -13 73
c-11 60 -16 72 -32 72 -17 0 -19 -8 -19 -105z"/>
<path d="M1676 1084 c-12 -11 -16 -35 -16 -89 0 -78 13 -105 50 -105 37 0 50
27 50 105 0 78 -13 105 -50 105 -10 0 -26 -7 -34 -16z m49 -90 c0 -55 -3 -69
-15 -69 -11 0 -16 15 -18 59 -3 66 2 90 21 83 8 -2 12 -26 12 -73z"/>
<path d="M1770 1085 c0 -8 7 -15 15 -15 12 0 15 -17 15 -90 0 -73 3 -90 15
-90 12 0 15 17 15 90 0 83 1 90 20 90 11 0 20 7 20 15 0 11 -12 15 -50 15 -38
0 -50 -4 -50 -15z"/>
<path d="M1896 1084 c-12 -11 -16 -35 -16 -89 0 -78 13 -105 50 -105 37 0 50
27 50 105 0 78 -13 105 -50 105 -10 0 -26 -7 -34 -16z m49 -90 c0 -55 -3 -69
-15 -69 -11 0 -16 15 -18 59 -3 66 2 90 21 83 8 -2 12 -26 12 -73z"/>
<path d="M2000 995 c0 -87 3 -105 15 -105 11 0 15 11 15 40 0 29 4 40 15 40
11 0 15 -11 15 -40 0 -34 3 -40 21 -40 11 0 17 4 14 10 -4 6 -7 50 -6 98 0 95
-4 102 -56 102 l-33 0 0 -105z m60 40 c0 -24 -5 -35 -15 -35 -10 0 -15 11 -15
35 0 24 5 35 15 35 10 0 15 -11 15 -35z"/>
<path d="M1516 648 c7 -57 13 -104 13 -105 1 -2 10 -3 21 -3 15 0 20 7 21 28
0 15 4 36 9 47 6 15 9 8 9 -27 1 -44 3 -48 25 -48 22 0 24 4 30 78 4 42 9 89
12 105 4 19 2 27 -9 27 -11 0 -17 -20 -24 -77 l-9 -78 -8 78 c-12 114 -46 102
-46 -17 0 -67 -12 -51 -19 26 -4 46 -10 64 -22 66 -13 2 -14 -8 -3 -100z"/>
<path d="M1680 645 c0 -87 3 -105 15 -105 11 0 15 12 15 45 0 33 4 45 15 45
11 0 15 -12 15 -45 0 -33 4 -45 15 -45 12 0 15 18 15 105 0 87 -3 105 -15 105
-11 0 -15 -12 -15 -45 0 -33 -4 -45 -15 -45 -11 0 -15 12 -15 45 0 33 -4 45
-15 45 -12 0 -15 -18 -15 -105z"/>
<path d="M1800 645 l0 -105 45 0 c33 0 45 4 45 15 0 10 -10 15 -30 15 -27 0
-30 3 -30 30 0 25 4 30 25 30 16 0 25 6 25 15 0 9 -9 15 -25 15 -21 0 -25 5
-25 30 0 27 3 30 30 30 20 0 30 5 30 15 0 11 -12 15 -45 15 l-45 0 0 -105z"/>
<path d="M1910 645 l0 -105 40 0 c29 0 40 4 40 15 0 9 -9 15 -25 15 -21 0 -25
5 -25 30 0 23 4 30 20 30 11 0 20 7 20 15 0 8 -9 15 -20 15 -16 0 -20 7 -20
30 0 25 4 30 25 30 16 0 25 6 25 15 0 11 -11 15 -40 15 l-40 0 0 -105z"/>
<path d="M2020 645 l0 -105 40 0 c29 0 40 4 40 15 0 9 -9 15 -25 15 -25 0 -25
1 -25 90 0 73 -3 90 -15 90 -12 0 -15 -18 -15 -105z"/>
<path d="M1220 5463 c-25 -10 -30 -25 -30 -100 0 -91 21 -119 71 -93 15 8 19
22 19 60 0 43 -3 50 -20 50 -11 0 -20 -7 -20 -15 0 -8 5 -15 11 -15 18 0 6
-55 -13 -58 -16 -3 -18 6 -18 72 0 69 2 76 20 76 13 0 20 -7 20 -20 0 -11 5
-20 10 -20 18 0 11 49 -9 60 -11 5 -21 10 -23 9 -2 0 -10 -3 -18 -6z"/>
<path d="M1310 5365 c0 -87 3 -105 15 -105 11 0 15 11 15 40 0 29 4 40 15 40
23 0 55 37 55 65 0 34 -33 65 -70 65 l-30 0 0 -105z m70 40 c0 -28 -4 -35 -20
-35 -16 0 -20 7 -20 35 0 28 4 35 20 35 16 0 20 -7 20 -35z"/>
<path d="M1420 5365 c0 -87 3 -105 15 -105 12 0 15 18 15 105 0 87 -3 105 -15
105 -12 0 -15 -18 -15 -105z"/>
<path d="M1502 5454 c-19 -13 -22 -24 -22 -87 0 -79 5 -91 37 -101 15 -5 28
-1 42 13 30 30 30 142 1 171 -24 24 -29 24 -58 4z m43 -89 c0 -58 -3 -70 -17
-73 -16 -3 -18 6 -18 73 0 67 2 76 18 73 14 -3 17 -15 17 -73z"/>
<path d="M4524 5238 c11 -119 16 -138 37 -138 13 0 20 10 24 38 9 54 13 61 14
25 1 -44 10 -63 31 -63 18 0 18 0 36 153 5 49 4 57 -10 57 -12 0 -16 -11 -17
-47 -1 -27 -5 -61 -9 -78 -7 -29 -8 -29 -9 10 -4 130 -35 158 -47 43 -6 -59
-9 -67 -15 -43 -4 17 -7 49 -8 73 -1 32 -5 42 -17 42 -14 0 -16 -9 -10 -72z"/>
<path d="M4690 5205 c0 -87 3 -105 15 -105 12 0 15 18 15 105 0 87 -3 105 -15
105 -12 0 -15 -18 -15 -105z"/>
<path d="M4750 5205 c0 -87 3 -105 15 -105 11 0 15 11 15 40 0 33 3 40 20 40
11 0 20 7 20 15 0 8 -9 15 -20 15 -16 0 -20 7 -20 35 0 31 3 35 25 35 16 0 25
6 25 15 0 11 -11 15 -40 15 l-40 0 0 -105z"/>
<path d="M4850 5205 c0 -87 3 -105 15 -105 12 0 15 18 15 105 0 87 -3 105 -15
105 -12 0 -15 -18 -15 -105z"/>
<path d="M1210 4623 c-25 -10 -30 -25 -30 -98 0 -77 5 -89 36 -99 24 -7 52 12
54 39 6 54 0 75 -20 75 -11 0 -20 -7 -20 -15 0 -8 5 -15 11 -15 18 0 6 -55
-13 -58 -16 -3 -18 6 -18 72 0 63 3 76 16 76 9 0 18 -9 21 -20 3 -12 11 -19
17 -17 15 6 8 39 -12 55 -17 13 -19 13 -42 5z"/>
<path d="M1300 4525 c0 -87 3 -105 15 -105 11 0 15 11 15 39 0 35 3 40 29 46
33 7 46 39 36 85 -6 28 -27 40 -72 40 -22 0 -23 -3 -23 -105z m70 40 c0 -28
-4 -35 -20 -35 -16 0 -20 7 -20 35 0 28 4 35 20 35 16 0 20 -7 20 -35z"/>
<path d="M1410 4525 c0 -87 3 -105 15 -105 12 0 15 18 15 105 0 87 -3 105 -15
105 -12 0 -15 -18 -15 -105z"/>
<path d="M1492 4614 c-19 -13 -22 -24 -22 -87 0 -79 5 -91 37 -101 15 -5 28
-1 42 13 30 30 30 142 1 171 -24 24 -29 24 -58 4z m43 -89 c0 -58 -3 -70 -17
-73 -16 -3 -18 6 -18 73 0 67 2 76 18 73 14 -3 17 -15 17 -73z"/>
<path d="M3920 3795 l0 -395 435 0 435 0 0 395 0 395 -435 0 -435 0 0 -395z
m820 0 l0 -345 -385 0 -385 0 0 345 0 345 385 0 385 0 0 -345z"/>
<path d="M4082 4038 c-20 -20 -13 -56 18 -91 33 -38 38 -57 15 -57 -8 0 -15 7
-15 15 0 8 -7 15 -15 15 -18 0 -20 -31 -3 -48 19 -19 56 -14 68 8 14 26 6 50
-25 84 -28 30 -33 56 -10 56 8 0 15 -4 15 -10 0 -5 5 -10 10 -10 6 0 10 9 10
19 0 29 -45 42 -68 19z"/>
<path d="M4170 3955 l0 -95 40 0 c29 0 40 4 40 15 0 9 -9 15 -25 15 -20 0 -25
5 -25 25 0 18 5 25 20 25 11 0 20 7 20 15 0 8 -9 15 -20 15 -15 0 -20 7 -20
25 0 20 5 25 25 25 16 0 25 6 25 15 0 11 -11 15 -40 15 l-40 0 0 -95z"/>
<path d="M4270 3955 c0 -78 3 -95 15 -95 10 0 15 11 15 35 0 24 5 35 15 35 10
0 15 -11 15 -35 0 -23 5 -35 14 -35 11 0 14 18 14 83 -1 45 -5 88 -11 95 -5 6
-25 12 -43 12 l-34 0 0 -95z m58 38 c-4 -39 -28 -42 -28 -4 0 21 5 31 16 31
11 0 14 -8 12 -27z"/>
<path d="M4370 4043 c0 -12 20 -135 25 -160 9 -37 43 -30 49 10 3 17 10 59 16
91 5 33 10 61 10 63 0 2 -6 3 -14 3 -10 0 -16 -19 -21 -65 -4 -36 -11 -65 -15
-65 -4 0 -11 29 -15 65 -5 46 -11 65 -21 65 -8 0 -14 -3 -14 -7z"/>
<path d="M4492 4038 c-16 -16 -16 -150 0 -166 7 -7 21 -12 33 -12 36 0 45 20
45 95 0 75 -9 95 -45 95 -12 0 -26 -5 -33 -12z m48 -83 c0 -51 -3 -65 -15 -65
-12 0 -15 14 -15 65 0 51 3 65 15 65 12 0 15 -14 15 -65z"/>
<path d="M4050 3635 c0 -102 19 -137 21 -37 1 49 2 53 10 27 4 -16 11 -43 14
-58 9 -42 29 -27 37 27 9 68 18 69 18 3 0 -31 5 -57 10 -57 6 0 10 38 10 95 0
87 -2 95 -19 95 -16 0 -21 -11 -28 -62 -10 -65 -14 -62 -28 25 -4 28 -11 37
-25 37 -18 0 -20 -7 -20 -95z"/>
<path d="M4206 3714 c-11 -11 -16 -35 -16 -79 0 -44 5 -68 16 -79 18 -19 45
-21 62 -4 16 16 16 150 0 166 -17 17 -44 15 -62 -4z m44 -79 c0 -51 -3 -65
-15 -65 -12 0 -15 14 -15 65 0 51 3 65 15 65 12 0 15 -14 15 -65z"/>
<path d="M4290 3715 c0 -8 7 -15 15 -15 12 0 15 -16 15 -80 0 -64 3 -80 15
-80 12 0 15 16 15 80 0 64 3 80 15 80 8 0 15 7 15 15 0 11 -12 15 -45 15 -33
0 -45 -4 -45 -15z"/>
<path d="M4406 3714 c-11 -11 -16 -35 -16 -79 0 -44 5 -68 16 -79 18 -19 45
-21 62 -4 16 16 16 150 0 166 -17 17 -44 15 -62 -4z m44 -79 c0 -51 -3 -65
-15 -65 -12 0 -15 14 -15 65 0 51 3 65 15 65 12 0 15 -14 15 -65z"/>
<path d="M4500 3635 c0 -78 3 -95 15 -95 10 0 15 11 15 35 0 24 5 35 15 35 10
0 15 -11 15 -35 0 -24 5 -35 14 -35 12 0 15 17 14 83 0 45 -5 88 -10 95 -6 6
-26 12 -44 12 l-34 0 0 -95z m60 35 c0 -20 -5 -30 -15 -30 -10 0 -15 10 -15
30 0 20 5 30 15 30 10 0 15 -10 15 -30z"/>
<path d="M3526 4114 c-19 -18 -22 -124 -6 -155 12 -21 50 -25 68 -7 7 7 12 31
12 55 0 36 -3 43 -20 43 -18 0 -20 -4 -14 -40 5 -33 4 -40 -10 -40 -13 0 -16
12 -16 65 0 51 3 65 15 65 8 0 15 -7 15 -15 0 -8 7 -15 15 -15 18 0 20 31 3
48 -17 17 -44 15 -62 -4z"/>
<path d="M3620 4035 c0 -78 3 -95 15 -95 10 0 15 10 15 34 0 28 4 35 25 40 22
6 25 11 25 55 0 52 -8 61 -56 61 -24 0 -24 -1 -24 -95z m55 35 c0 -13 -6 -25
-12 -27 -9 -3 -13 6 -13 27 0 21 4 30 13 28 6 -3 12 -15 12 -28z"/>
<path d="M3720 4035 c0 -78 3 -95 15 -95 12 0 15 17 15 95 0 78 -3 95 -15 95
-12 0 -15 -17 -15 -95z"/>
<path d="M3782 4118 c-16 -16 -16 -150 0 -166 17 -17 44 -15 62 4 11 11 16 35
16 79 0 44 -5 68 -16 79 -18 19 -45 21 -62 4z m48 -83 c0 -51 -3 -65 -15 -65
-12 0 -15 14 -15 65 0 51 3 65 15 65 12 0 15 -14 15 -65z"/>
<path d="M3870 3931 c0 -8 -57 -11 -195 -11 -167 0 -195 -2 -195 -15 0 -13 28
-15 195 -15 138 0 195 -3 195 -11 0 -8 5 -8 15 1 8 7 15 18 15 25 0 7 -7 18
-15 25 -10 9 -15 9 -15 1z"/>
<path d="M2328 3419 c-21 -12 -24 -49 -6 -67 16 -16 160 -16 176 0 18 18 14
56 -7 68 -25 13 -141 13 -163 -1z m151 -18 c8 -5 11 -16 8 -25 -5 -13 -21 -16
-77 -16 -56 0 -72 3 -77 16 -9 23 15 34 77 34 30 0 61 -4 69 -9z"/>
<path d="M2408 3303 c-129 -5 -127 -23 2 -23 82 0 100 3 100 15 0 8 -1 14 -2
13 -2 -1 -47 -4 -100 -5z"/>
<path d="M7658 3279 c-21 -12 -24 -49 -6 -67 16 -16 160 -16 176 0 18 18 14
56 -7 68 -25 13 -141 13 -163 -1z m151 -18 c8 -5 11 -16 8 -25 -5 -13 -21 -16
-77 -16 -56 0 -72 3 -77 16 -9 23 15 34 77 34 30 0 61 -4 69 -9z"/>
<path d="M2322 3248 c-7 -7 -12 -27 -12 -45 l0 -33 100 0 c56 0 100 4 100 9 0
6 -17 11 -37 13 -29 2 -39 8 -41 23 -3 11 -9 26 -14 33 -13 15 -80 16 -96 0z
m77 -17 c23 -15 5 -41 -28 -41 -33 0 -46 13 -37 35 6 17 43 20 65 6z"/>
<path d="M6330 3165 c-21 -25 5 -45 60 -45 55 0 81 20 60 45 -14 17 -40 20
-40 5 0 -5 7 -10 16 -10 31 0 7 -25 -27 -28 -36 -2 -74 15 -51 25 14 5 17 23
3 23 -5 0 -14 -7 -21 -15z"/>
<path d="M7640 3150 c0 -6 40 -10 100 -10 60 0 100 4 100 10 0 6 -40 10 -100
10 -60 0 -100 -4 -100 -10z"/>
<path d="M2326 3124 c-19 -18 -21 -45 -4 -62 16 -16 160 -16 176 0 33 33 -1
78 -59 78 -32 0 -39 -3 -39 -20 0 -22 10 -26 27 -9 17 17 65 2 61 -19 -5 -25
-151 -25 -156 0 -2 9 5 19 17 23 12 3 21 11 21 16 0 14 -27 11 -44 -7z"/>
<path d="M7652 3108 c-7 -7 -12 -27 -12 -45 l0 -33 100 0 c56 0 100 4 100 9 0
6 -17 11 -37 13 -29 2 -39 8 -41 23 -3 11 -9 26 -14 33 -13 15 -80 16 -96 0z
m77 -17 c23 -15 5 -41 -29 -41 -19 0 -33 6 -37 16 -6 17 12 34 37 34 8 0 21
-4 29 -9z"/>
<path d="M6326 3084 c-15 -39 -8 -44 64 -44 72 0 79 5 64 44 -5 12 -20 16 -64
16 -44 0 -59 -4 -64 -16z m112 -11 c2 -9 -11 -13 -47 -13 -48 0 -61 7 -44 24
12 11 86 2 91 -11z"/>
<path d="M6361 3011 c-36 -6 -51 -25 -28 -34 19 -7 135 -18 120 -11 -7 3 -13
14 -13 24 0 10 6 21 13 23 17 7 -50 6 -92 -2z m59 -21 c0 -5 -13 -10 -30 -10
-16 0 -30 5 -30 10 0 6 14 10 30 10 17 0 30 -4 30 -10z"/>
<path d="M7656 2984 c-19 -18 -21 -45 -4 -62 16 -16 160 -16 176 0 33 33 -1
78 -59 78 -32 0 -39 -3 -39 -20 0 -22 10 -26 27 -9 17 17 65 2 61 -19 -5 -25
-151 -25 -156 0 -2 9 5 19 17 23 12 3 21 11 21 16 0 14 -27 11 -44 -7z"/>
<path d="M7410 2163 c-25 -10 -30 -25 -30 -100 0 -91 21 -119 71 -93 15 8 19
22 19 60 0 43 -3 50 -20 50 -11 0 -20 -7 -20 -15 0 -8 5 -15 11 -15 18 0 6
-55 -13 -58 -16 -3 -18 6 -18 72 0 63 3 76 16 76 9 0 18 -9 21 -20 7 -28 23
-25 23 5 0 20 -27 48 -42 44 -2 0 -10 -3 -18 -6z"/>
<path d="M7500 2065 c0 -87 3 -105 15 -105 11 0 15 11 15 40 0 29 4 40 15 40
23 0 55 37 55 65 0 34 -33 65 -70 65 l-30 0 0 -105z m70 40 c0 -28 -4 -35 -20
-35 -16 0 -20 7 -20 35 0 28 4 35 20 35 16 0 20 -7 20 -35z"/>
<path d="M7610 2065 c0 -87 3 -105 15 -105 12 0 15 18 15 105 0 87 -3 105 -15
105 -12 0 -15 -18 -15 -105z"/>
<path d="M7700 2163 c-25 -10 -30 -25 -30 -98 0 -77 5 -89 37 -99 15 -5 28 -1
42 13 30 30 30 142 1 171 -21 21 -25 22 -50 13z m35 -98 c0 -58 -3 -70 -17
-73 -16 -3 -18 6 -18 73 0 67 2 76 18 73 14 -3 17 -15 17 -73z"/>
<path d="M1680 1633 c-25 -10 -30 -25 -30 -98 0 -75 5 -88 33 -98 36 -14 57
10 57 63 0 43 -3 50 -20 50 -11 0 -20 -7 -20 -15 0 -8 5 -15 11 -15 18 0 6
-55 -13 -58 -16 -3 -18 6 -18 72 0 63 3 76 16 76 9 0 18 -9 21 -20 3 -12 11
-19 17 -17 15 6 8 39 -12 55 -17 13 -19 13 -42 5z"/>
<path d="M1770 1535 c0 -87 3 -105 15 -105 11 0 15 11 15 39 0 35 3 40 29 46
28 6 41 26 41 68 0 27 -37 57 -70 57 l-30 0 0 -105z m70 40 c0 -28 -4 -35 -20
-35 -16 0 -20 7 -20 35 0 28 4 35 20 35 16 0 20 -7 20 -35z"/>
<path d="M1880 1535 c0 -87 3 -105 15 -105 12 0 15 18 15 105 0 87 -3 105 -15
105 -12 0 -15 -18 -15 -105z"/>
<path d="M1962 1624 c-19 -13 -22 -24 -22 -87 0 -79 5 -91 37 -101 15 -5 28
-1 42 13 30 30 30 142 1 171 -24 24 -29 24 -58 4z m43 -89 c0 -58 -3 -70 -17
-73 -16 -3 -18 6 -18 73 0 67 2 76 18 73 14 -3 17 -15 17 -73z"/>
<path d="M3230 1613 c-25 -10 -30 -25 -30 -100 0 -91 21 -119 71 -93 15 8 19
22 19 60 0 43 -3 50 -20 50 -11 0 -20 -7 -20 -15 0 -8 5 -15 11 -15 18 0 6
-55 -13 -58 -16 -3 -18 6 -18 72 0 63 3 76 16 76 9 0 18 -9 21 -20 7 -28 23
-25 23 5 0 20 -27 48 -42 44 -2 0 -10 -3 -18 -6z"/>
<path d="M3320 1515 c0 -87 3 -105 15 -105 11 0 15 11 15 40 0 29 4 40 15 40
23 0 55 37 55 65 0 34 -33 65 -70 65 l-30 0 0 -105z m70 40 c0 -28 -4 -35 -20
-35 -16 0 -20 7 -20 35 0 28 4 35 20 35 16 0 20 -7 20 -35z"/>
<path d="M3430 1515 c0 -87 3 -105 15 -105 12 0 15 18 15 105 0 87 -3 105 -15
105 -12 0 -15 -18 -15 -105z"/>
<path d="M3512 1604 c-19 -13 -22 -24 -22 -89 0 -65 3 -76 22 -89 29 -20 34
-20 58 4 16 16 20 33 20 85 0 52 -4 69 -20 85 -24 24 -29 24 -58 4z m43 -89
c0 -58 -3 -70 -17 -73 -16 -3 -18 6 -18 73 0 67 2 76 18 73 14 -3 17 -15 17
-73z"/>
</g>
</svg>
