<?xml version="1.0" standalone="no"?>
<!DOCTYPE svg PUBLIC "-//W3C//DTD SVG 20010904//EN"
 "http://www.w3.org/TR/2001/REC-SVG-20010904/DTD/svg10.dtd">
<svg version="1.0" xmlns="http://www.w3.org/2000/svg"
 width="1048.000000pt" height="706.000000pt" viewBox="0 0 1048.000000 706.000000"
 preserveAspectRatio="xMidYMid meet">
<metadata>
Created by potrace 1.16, written by Peter Selinger 2001-2019
</metadata>
<g transform="translate(0.000000,706.000000) scale(0.100000,-0.100000)"
fill="#000000" stroke="none">
<path d="M2114 7038 c3 -13 6 -213 6 -445 l0 -423 680 0 680 0 2 198 3 197
398 3 397 2 0 -305 0 -305 -572 -2 -573 -3 -3 -202 -2 -203 240 0 240 0 0
-105 0 -105 -517 2 -518 3 -3 372 -2 373 -298 2 -297 3 -3 223 -2 222 -530 0
-530 0 0 -455 0 -455 530 0 530 0 2 223 3 222 293 3 292 2 0 -375 0 -375 523
-2 522 -3 3 -136 3 -136 -813 -6 c-446 -3 -815 -4 -820 -1 -4 3 -8 104 -8 225
l0 219 -530 0 -530 0 0 -455 0 -455 530 0 530 0 2 223 3 222 818 3 817 2 0
-151 0 -152 -525 8 -525 7 0 -376 0 -376 -292 2 -293 3 -3 223 -2 222 -530 0
-530 0 0 -455 0 -455 530 0 530 0 2 223 3 222 297 3 298 2 2 372 3 371 305 -2
c168 0 401 -4 518 -8 l212 -6 0 -583 0 -584 -245 0 -245 0 0 -825 0 -825 -567
2 -568 3 -3 222 -2 223 -530 0 -530 0 0 -455 0 -455 530 0 530 0 0 215 0 215
583 2 582 3 3 823 2 822 230 0 230 0 0 -90 0 -90 -150 0 -150 0 0 -1295 0
-1295 -692 2 -693 3 -3 223 -2 222 -530 0 -530 0 0 -455 0 -455 530 0 530 0 0
215 0 215 710 0 710 0 0 1295 0 1295 134 0 135 0 0 -100 1 -100 -80 0 -80 0 0
-1305 0 -1305 395 0 395 0 0 -200 0 -200 529 0 530 0 3 227 c2 125 2 330 0
455 l-3 228 -530 0 -529 0 0 -240 0 -240 -380 0 -380 0 0 1275 0 1275 65 0 65
0 0 -370 0 -370 755 0 755 0 0 155 0 155 230 0 230 0 0 -475 0 -475 -347 2
-348 3 -3 223 -2 222 -530 0 -530 0 0 -455 0 -455 530 0 530 0 0 215 0 215
365 0 365 0 0 505 0 505 -245 0 -245 0 0 55 0 55 310 0 310 0 0 -740 0 -740
500 0 500 0 0 -175 0 -175 550 0 550 0 0 400 0 400 -550 0 -550 0 0 -210 0
-210 -485 0 -485 0 -2 737 -3 738 -323 3 -322 2 2 218 3 217 535 -3 c294 -1
1168 -5 1943 -8 l1407 -6 0 -164 0 -164 -375 0 -375 0 0 -460 0 -460 680 0
680 0 0 460 0 460 -300 0 -300 0 0 169 0 169 -472 6 c-260 4 -1137 10 -1948
14 l-1475 7 -3 514 -2 514 1457 -6 c801 -4 1793 -7 2205 -7 l748 0 0 -30 0
-30 -260 0 -260 0 0 -460 0 -460 530 0 530 0 0 460 0 460 -260 0 -260 0 0 33
0 34 -632 6 c-347 4 -1129 7 -1737 7 -608 0 -1116 3 -1128 6 -21 6 -23 13 -23
65 0 62 -7 70 -33 41 -21 -23 -22 -33 -2 -26 12 5 15 -3 15 -35 0 -40 -1 -41
-35 -41 l-35 0 0 60 0 60 -25 -16 c-14 -9 -22 -20 -19 -26 3 -5 12 -4 20 3 12
10 14 4 14 -35 l0 -46 -65 0 -65 0 11 24 c25 54 -18 106 -76 92 -33 -8 -50
-49 -36 -88 9 -24 8 -28 -10 -28 -17 0 -19 7 -19 60 0 33 -4 60 -10 60 -6 0
-10 -27 -10 -60 l0 -60 -50 0 c-43 0 -50 3 -50 20 0 15 7 20 24 20 14 0 32 7
40 16 33 33 11 64 -46 64 l-38 0 0 -60 c0 -47 -3 -60 -15 -60 -10 0 -15 10
-15 30 0 25 -4 30 -25 30 -14 0 -25 -4 -25 -10 0 -5 9 -10 20 -10 11 0 20 -4
20 -10 0 -5 -9 -14 -20 -20 -31 -17 -70 12 -70 51 0 12 37 49 49 49 5 0 17 -7
26 -16 20 -20 33 -11 15 11 -7 8 -25 15 -41 15 -51 0 -82 -54 -55 -95 l16 -25
-145 0 -145 0 0 175 0 175 1368 0 c752 0 1580 3 1840 7 l472 6 0 79 0 78 260
0 260 0 0 460 0 460 -530 0 -530 0 0 -460 0 -460 260 0 260 0 0 -75 0 -75
-1830 0 -1830 0 2 248 3 247 665 0 665 0 3 -222 2 -223 530 0 530 0 0 455 0
455 -530 0 -530 0 0 -225 0 -225 -667 2 -668 3 -3 141 c-3 162 -8 154 95 154
l53 0 2 368 3 367 590 0 590 0 3 -222 2 -223 530 0 530 0 0 455 0 455 -530 0
-530 0 0 -225 0 -225 -600 0 -600 0 0 -364 0 -363 -31 -7 c-17 -3 -49 -6 -70
-6 l-39 0 0 70 0 70 -755 0 -755 0 0 -30 0 -30 -225 0 -225 0 0 175 0 175 575
0 575 0 0 325 0 325 -415 0 -415 0 0 225 c0 143 4 225 10 225 6 0 10 7 10 15
0 13 -84 15 -696 15 l-696 0 6 -22z m1356 -433 l0 -425 -670 0 -670 0 0 425 0
425 670 0 670 0 0 -425z m4040 -370 l0 -445 -520 0 -520 0 0 445 0 445 520 0
520 0 0 -445z m-5550 -150 l0 -445 -520 0 -520 0 0 445 0 445 520 0 520 0 0
-445z m7350 -795 l0 -440 -520 0 -520 0 0 440 0 440 520 0 520 0 0 -440z
m-4200 -1305 l0 -1645 -745 0 -745 0 0 1645 0 1645 745 0 745 0 0 -1645z
m2400 1200 l0 -445 -520 0 -520 0 0 445 0 445 520 0 520 0 0 -445z m-5550
-150 l0 -445 -520 0 -520 0 0 445 0 445 520 0 520 0 0 -445z m0 -1050 l0 -445
-520 0 -520 0 0 445 0 445 520 0 520 0 0 -445z m3835 380 c0 -17 -8 -33 -22
-42 -19 -13 -24 -12 -42 6 -26 26 -26 46 0 72 18 18 23 19 42 6 14 -9 22 -25
22 -42z m-187 28 c-2 -11 -14 -19 -31 -21 -22 -3 -27 1 -27 17 0 17 6 21 31
21 24 0 30 -4 27 -17z m4452 -633 l0 -440 -520 0 -520 0 0 440 0 440 520 0
520 0 0 -440z m-450 -1320 l0 -440 -670 0 -670 0 0 440 0 440 670 0 670 0 0
-440z m-7640 -555 l0 -445 -520 0 -520 0 0 445 0 445 520 0 520 0 0 -445z
m2900 -200 l0 -445 -520 0 -520 0 0 445 0 445 520 0 520 0 0 -445z m2940 -335
l0 -370 -520 0 -520 0 0 370 0 370 520 0 520 0 0 -370z m-5900 -615 l0 -445
-520 0 -520 0 0 445 0 445 520 0 520 0 0 -445z m3380 -190 l0 -445 -520 0
-520 0 0 445 0 445 520 0 520 0 0 -445z"/>
<path d="M2538 6783 c7 -3 12 -25 12 -58 0 -33 -5 -55 -12 -59 -7 -3 9 -4 36
-3 34 1 51 7 54 17 4 12 2 13 -9 3 -7 -7 -21 -13 -32 -13 -17 0 -18 7 -15 60
3 58 2 60 -22 59 -14 0 -19 -3 -12 -6z"/>
<path d="M2670 6770 c-25 -25 -26 -72 -2 -93 24 -22 66 -22 83 1 11 14 11 15
-1 5 -24 -22 -59 -15 -72 12 -26 58 31 113 66 63 l16 -22 0 24 c0 21 -5 25
-35 27 -24 2 -41 -3 -55 -17z"/>
<path d="M2778 6783 c7 -3 12 -25 12 -58 0 -33 -5 -55 -12 -58 -7 -3 7 -6 32
-6 60 -1 90 20 90 63 0 47 -26 66 -86 65 -27 0 -43 -3 -36 -6z m86 -19 c33
-32 10 -94 -35 -94 -16 0 -19 7 -19 55 0 48 3 55 19 55 11 0 27 -7 35 -16z"/>
<path d="M2569 6568 c0 -2 -1 -31 -2 -66 -2 -60 -1 -62 23 -61 14 0 19 3 13 6
-9 3 -13 26 -13 64 0 33 -4 59 -10 59 -5 0 -10 -1 -11 -2z"/>
<path d="M2664 6545 c-18 -19 -24 -34 -22 -57 6 -62 73 -64 73 -2 0 22 -5 30
-22 32 -31 4 -29 18 5 36 20 11 22 15 9 16 -10 0 -29 -11 -43 -25z m36 -54
c11 -22 -3 -46 -24 -38 -10 4 -16 18 -16 36 0 23 4 29 15 25 9 -4 20 -14 25
-23z"/>
<path d="M2750 6551 c-23 -44 -5 -111 30 -111 23 0 40 28 40 65 0 37 -17 65
-40 65 -11 0 -24 -9 -30 -19z m50 -15 c11 -30 -2 -81 -21 -81 -15 0 -25 64
-15 91 8 22 25 17 36 -10z"/>
<path d="M2852 6557 c-10 -12 -8 -13 12 -10 30 6 40 -10 25 -39 -11 -21 -11
-22 5 -9 24 20 17 65 -10 69 -11 2 -26 -3 -32 -11z"/>
<path d="M2854 6459 c-18 -20 -18 -20 21 -17 21 2 40 8 42 14 2 7 -6 10 -23 6
-19 -3 -25 -1 -20 7 11 18 1 13 -20 -10z"/>
<path d="M6590 6346 c0 -37 4 -66 10 -66 6 0 10 11 10 25 0 19 5 25 23 25 35
0 59 22 55 51 -3 21 -9 24 -50 27 l-48 3 0 -65z m80 24 c0 -16 -7 -20 -30 -20
-23 0 -30 4 -30 20 0 16 7 20 30 20 23 0 30 -4 30 -20z"/>
<path d="M6710 6330 c0 -61 18 -67 22 -7 2 27 7 41 16 40 6 -2 12 2 12 7 0 6
-11 10 -25 10 -23 0 -25 -3 -25 -50z"/>
<path d="M6782 6368 c-17 -17 -15 -63 3 -78 16 -13 65 -6 65 10 0 13 -13 13
-27 -1 -7 -7 -16 -5 -29 8 -17 17 -17 18 19 21 38 3 47 18 25 40 -7 7 -19 12
-28 12 -9 0 -21 -5 -28 -12z m46 -16 c2 -7 -6 -12 -17 -12 -21 0 -27 11 -14
24 9 9 26 2 31 -12z"/>
<path d="M6877 6373 c-15 -14 -5 -33 24 -49 24 -12 28 -18 18 -24 -7 -5 -21
-4 -32 2 -15 8 -18 7 -15 -4 3 -7 18 -13 34 -13 22 0 30 5 32 21 2 17 -5 24
-30 33 -26 9 -30 14 -18 21 9 5 19 5 27 -2 15 -13 28 -4 18 11 -7 12 -48 15
-58 4z"/>
<path d="M6972 6368 c-17 -17 -15 -63 3 -78 16 -13 65 -6 65 10 0 13 -13 13
-27 -1 -7 -7 -16 -5 -29 8 -17 17 -17 18 19 21 38 3 47 18 25 40 -7 7 -19 12
-28 12 -9 0 -21 -5 -28 -12z m46 -16 c2 -7 -6 -12 -17 -12 -21 0 -27 11 -14
24 9 9 26 2 31 -12z"/>
<path d="M7060 6328 c0 -26 5 -48 10 -48 6 0 10 18 10 39 0 24 5 41 14 44 20
8 26 -2 26 -45 0 -21 5 -38 10 -38 12 0 13 69 2 87 -4 6 -22 11 -40 11 -32 -1
-32 -2 -32 -50z"/>
<path d="M7172 6368 c-7 -7 -12 -24 -12 -38 0 -46 43 -67 70 -35 18 22 5 31
-15 11 -21 -20 -22 -20 -35 3 -17 32 -2 54 33 47 25 -5 28 -4 17 9 -15 18 -42
19 -58 3z"/>
<path d="M7262 6368 c-17 -17 -15 -63 3 -78 16 -13 65 -6 65 10 0 13 -13 13
-27 -1 -7 -7 -16 -5 -29 8 -17 17 -17 18 19 21 38 3 47 18 25 40 -7 7 -19 12
-28 12 -9 0 -21 -5 -28 -12z m46 -16 c2 -7 -6 -12 -17 -12 -21 0 -27 11 -14
24 9 9 26 2 31 -12z"/>
<path d="M7267 6172 c-21 -23 -22 -33 -2 -26 12 5 15 -3 15 -40 0 -25 5 -46
10 -46 6 0 10 28 10 65 0 68 -6 77 -33 47z"/>
<path d="M6657 6153 c-15 -14 -5 -33 24 -49 24 -12 28 -18 18 -24 -7 -5 -21
-4 -32 2 -15 8 -18 7 -15 -4 3 -7 18 -13 34 -13 22 0 30 5 32 21 2 17 -5 24
-30 33 -26 9 -30 14 -18 21 9 5 19 5 27 -2 15 -13 28 -4 18 11 -7 12 -48 15
-58 4z"/>
<path d="M6752 6148 c-17 -17 -15 -63 3 -78 16 -13 65 -6 65 10 0 13 -13 13
-27 -1 -7 -7 -16 -5 -29 8 -17 17 -17 18 19 21 38 3 47 18 25 40 -7 7 -19 12
-28 12 -9 0 -21 -5 -28 -12z m46 -16 c2 -7 -6 -12 -17 -12 -21 0 -27 11 -14
24 9 9 26 2 31 -12z"/>
<path d="M6840 6108 c0 -26 5 -48 10 -48 6 0 10 18 10 39 0 24 5 41 14 44 20
8 26 -2 26 -45 0 -21 5 -38 10 -38 12 0 13 69 2 87 -4 6 -22 11 -40 11 -32 -1
-32 -2 -32 -50z"/>
<path d="M6947 6153 c-15 -14 -5 -33 24 -49 24 -12 28 -18 18 -24 -7 -5 -21
-4 -32 2 -15 8 -18 7 -15 -4 3 -7 18 -13 34 -13 22 0 30 5 32 21 2 17 -5 24
-30 33 -26 9 -30 14 -18 21 9 5 19 5 27 -2 15 -13 28 -4 18 11 -7 12 -48 15
-58 4z"/>
<path d="M7041 6146 c-31 -37 9 -103 47 -80 36 23 23 94 -18 94 -10 0 -23 -6
-29 -14z m59 -36 c0 -11 -9 -24 -20 -30 -26 -14 -46 20 -30 50 9 16 15 18 30
10 11 -6 20 -19 20 -30z"/>
<path d="M7130 6110 c0 -61 18 -67 22 -7 2 27 7 41 16 40 6 -2 12 2 12 7 0 6
-11 10 -25 10 -23 0 -25 -3 -25 -50z"/>
<path d="M1227 6352 c-21 -23 -22 -33 -2 -26 12 5 15 -3 15 -40 0 -25 5 -46
10 -46 6 0 10 28 10 65 0 68 -6 77 -33 47z"/>
<path d="M1550 6360 c0 -5 5 -10 10 -10 6 0 10 5 10 10 0 6 -4 10 -10 10 -5 0
-10 -4 -10 -10z"/>
<path d="M1372 6328 c-7 -7 -12 -24 -12 -38 0 -46 43 -67 70 -35 18 22 5 31
-15 11 -21 -20 -22 -20 -35 3 -17 32 -2 54 33 47 25 -5 28 -4 17 9 -15 18 -42
19 -58 3z"/>
<path d="M1461 6326 c-31 -37 9 -103 47 -80 36 23 23 94 -18 94 -10 0 -23 -6
-29 -14z m59 -36 c0 -11 -9 -24 -20 -30 -26 -14 -46 20 -30 50 9 16 15 18 30
10 11 -6 20 -19 20 -30z"/>
<path d="M1550 6290 c0 -27 5 -50 10 -50 6 0 10 23 10 50 0 28 -4 50 -10 50
-5 0 -10 -22 -10 -50z"/>
<path d="M1590 6288 c0 -26 5 -48 10 -48 6 0 10 18 10 39 0 24 5 41 14 44 20
8 26 -2 26 -45 0 -21 5 -38 10 -38 12 0 13 69 2 87 -4 6 -22 11 -40 11 -32 -1
-32 -2 -32 -50z"/>
<path d="M1290 6280 c0 -5 14 -10 30 -10 17 0 30 5 30 10 0 6 -13 10 -30 10
-16 0 -30 -4 -30 -10z"/>
<path d="M1081 6045 c1 -38 4 -60 6 -47 3 16 11 22 29 22 33 0 52 40 36 75 -9
20 -18 25 -42 23 l-30 -2 1 -71z m59 25 c0 -30 -21 -45 -39 -27 -23 23 -4 71
25 60 8 -3 14 -18 14 -33z"/>
<path d="M1182 6065 c1 -40 2 -43 5 -15 3 20 13 42 26 52 l22 18 -27 -2 c-27
-2 -28 -5 -26 -53z"/>
<path d="M1238 6095 c-24 -53 36 -103 72 -60 14 17 3 20 -20 5 -9 -5 -19 -5
-27 2 -22 18 -14 28 22 28 38 0 40 2 25 31 -16 28 -58 25 -72 -6z m62 -6 c0
-5 -11 -9 -25 -9 -26 0 -34 15 -12 23 16 5 37 -3 37 -14z"/>
<path d="M1340 6104 c-12 -14 -12 -18 5 -30 10 -8 25 -14 32 -14 7 0 13 -4 13
-9 0 -17 -21 -23 -36 -10 -8 6 -18 9 -21 5 -9 -9 16 -26 38 -26 21 0 43 26 34
40 -4 6 -18 15 -32 21 -13 5 -21 13 -18 19 4 7 13 6 27 -1 16 -9 19 -8 16 3
-7 20 -43 21 -58 2z"/>
<path d="M1428 6095 c-24 -53 36 -103 72 -60 14 17 3 20 -20 5 -9 -5 -19 -5
-27 2 -22 18 -14 28 22 28 38 0 40 2 25 31 -16 28 -58 25 -72 -6z m62 -6 c0
-5 -11 -9 -25 -9 -26 0 -34 15 -12 23 16 5 37 -3 37 -14z"/>
<path d="M1532 6066 c1 -42 2 -45 5 -14 8 71 47 70 56 -2 3 -23 4 -18 3 15 -1
49 -1 50 -33 51 l-33 1 2 -51z"/>
<path d="M1630 6101 c-14 -26 -13 -44 3 -66 17 -22 67 -14 67 12 0 15 -1 15
-18 0 -14 -13 -21 -14 -30 -5 -26 26 -2 79 25 56 15 -12 28 -5 18 11 -11 18
-54 12 -65 -8z"/>
<path d="M1718 6095 c-24 -53 36 -103 72 -60 14 17 3 20 -20 5 -9 -5 -19 -5
-27 2 -22 18 -14 28 22 28 38 0 40 2 25 31 -16 28 -58 25 -72 -6z m62 -6 c0
-5 -11 -9 -25 -9 -26 0 -34 15 -12 23 16 5 37 -3 37 -14z"/>
<path d="M1180 5894 c-12 -14 -12 -18 5 -30 10 -8 25 -14 32 -14 7 0 13 -4 13
-9 0 -17 -21 -23 -36 -10 -8 6 -18 9 -21 5 -9 -9 16 -26 38 -26 21 0 43 26 34
40 -4 6 -18 15 -32 21 -13 5 -21 13 -18 19 4 7 13 6 27 -1 16 -9 19 -8 16 3
-7 20 -43 21 -58 2z"/>
<path d="M1268 5885 c-24 -53 36 -103 72 -60 14 17 3 20 -20 5 -9 -5 -19 -5
-27 2 -22 18 -14 28 22 28 38 0 40 2 25 31 -16 28 -58 25 -72 -6z m62 -6 c0
-5 -11 -9 -25 -9 -26 0 -34 15 -12 23 16 5 37 -3 37 -14z"/>
<path d="M1372 5856 c1 -42 2 -45 5 -14 8 71 47 70 56 -2 3 -23 4 -18 3 15 -1
49 -1 50 -33 51 l-33 1 2 -51z"/>
<path d="M1470 5894 c-12 -14 -12 -18 5 -30 10 -8 25 -14 32 -14 7 0 13 -4 13
-9 0 -17 -21 -23 -36 -10 -8 6 -18 9 -21 5 -9 -9 16 -26 38 -26 21 0 43 26 34
40 -4 6 -18 15 -32 21 -13 5 -21 13 -18 19 4 7 13 6 27 -1 16 -9 19 -8 16 3
-7 20 -43 21 -58 2z"/>
<path d="M1558 5886 c-17 -39 3 -78 39 -74 35 4 50 29 37 65 -13 39 -59 45
-76 9z m62 -26 c0 -16 -6 -30 -12 -33 -24 -8 -38 5 -38 33 0 16 6 30 13 33 23
8 37 -5 37 -33z"/>
<path d="M1662 5855 c1 -40 2 -43 5 -15 3 20 13 42 26 52 l22 18 -27 -2 c-27
-2 -28 -5 -26 -53z"/>
<path d="M8560 5406 c0 -37 4 -66 10 -66 6 0 10 11 10 24 0 39 21 42 51 8 36
-40 58 -42 30 -4 -19 27 -19 30 -3 46 27 27 4 50 -52 54 l-46 3 0 -65z m79 45
c23 -15 5 -41 -29 -41 -22 0 -30 5 -30 18 0 32 28 42 59 23z"/>
<path d="M8985 5460 c-9 -15 -8 -72 1 -102 3 -10 13 -18 22 -18 12 0 13 3 4
12 -16 16 -16 78 1 78 8 0 9 3 1 8 -6 4 -13 14 -16 22 -4 12 -6 12 -13 0z"/>
<path d="M8702 5428 c-17 -17 -15 -63 3 -78 16 -13 65 -6 65 10 0 13 -13 13
-27 -1 -7 -7 -16 -5 -29 8 -17 17 -17 18 19 21 38 3 47 18 25 40 -7 7 -19 12
-28 12 -9 0 -21 -5 -28 -12z m46 -16 c2 -7 -6 -12 -17 -12 -21 0 -27 11 -14
24 9 9 26 2 31 -12z"/>
<path d="M8797 5433 c-15 -14 -5 -33 24 -49 24 -12 28 -18 18 -24 -7 -5 -21
-4 -32 2 -15 8 -18 7 -15 -4 3 -7 18 -13 34 -13 22 0 30 5 32 21 2 17 -5 24
-30 33 -26 9 -30 14 -18 21 9 5 19 5 27 -2 15 -13 28 -4 18 11 -7 12 -48 15
-58 4z"/>
<path d="M8892 5428 c-17 -17 -15 -63 3 -78 16 -13 65 -6 65 10 0 13 -13 13
-27 -1 -7 -7 -16 -5 -29 8 -17 17 -17 18 19 21 38 3 47 18 25 40 -7 7 -19 12
-28 12 -9 0 -21 -5 -28 -12z m46 -16 c2 -7 -6 -12 -17 -12 -21 0 -27 11 -14
24 9 9 26 2 31 -12z"/>
<path d="M8551 5190 l-1 -66 30 -2 c24 -2 33 3 42 23 16 35 -3 75 -36 75 -15
0 -26 7 -29 18 -3 9 -5 -12 -6 -48z m59 -14 c0 -30 -20 -49 -37 -35 -16 14
-17 41 -2 56 17 17 39 4 39 -21z"/>
<path d="M8753 5236 c-11 -20 -2 -108 12 -113 6 -2 9 21 8 58 -2 67 -6 79 -20
55z"/>
<path d="M8803 5236 c-11 -20 -2 -108 12 -113 6 -2 9 21 8 58 -2 67 -6 79 -20
55z"/>
<path d="M8654 5175 c1 -49 1 -50 34 -51 l32 -1 -1 51 c-1 51 -1 51 -9 13 -13
-70 -44 -69 -53 3 -3 23 -4 18 -3 -15z"/>
<path d="M8848 5196 c-17 -39 3 -78 39 -74 35 4 50 29 37 65 -13 39 -59 45
-76 9z m62 -26 c0 -16 -6 -30 -12 -33 -24 -8 -38 5 -38 33 0 16 6 30 13 33 23
8 37 -5 37 -33z"/>
<path d="M8952 5166 c1 -42 2 -45 5 -14 8 71 47 70 56 -2 3 -23 4 -18 3 15 -1
49 -1 50 -33 51 l-33 1 2 -51z"/>
<path d="M3960 4096 c0 -37 4 -66 10 -66 6 0 10 14 10 30 0 38 14 38 50 -2 34
-37 50 -33 20 4 -17 23 -18 27 -4 32 10 4 14 16 12 33 -3 26 -7 28 -50 31
l-48 3 0 -65z m69 45 c21 -13 5 -41 -24 -41 -20 0 -25 5 -25 25 0 26 22 33 49
16z"/>
<path d="M4381 4100 l-1 -66 30 -2 c24 -2 33 3 42 23 16 35 -3 75 -36 75 -15
0 -26 7 -29 18 -3 9 -5 -12 -6 -48z m59 -14 c0 -30 -20 -49 -37 -35 -16 14
-17 41 -2 56 17 17 39 4 39 -21z"/>
<path d="M4097 4124 c-14 -15 -6 -24 11 -15 13 7 23 6 31 -2 9 -9 4 -14 -21
-23 -22 -7 -33 -17 -33 -30 0 -15 8 -19 40 -20 l41 -2 -6 47 c-4 40 -8 46 -30
49 -14 2 -29 0 -33 -4z m39 -69 c-19 -14 -36 -12 -36 6 0 5 12 9 28 9 26 -1
26 -1 8 -15z"/>
<path d="M4190 4114 c-12 -14 -12 -18 5 -30 10 -8 25 -14 32 -14 7 0 13 -4 13
-9 0 -17 -21 -23 -36 -10 -8 6 -18 9 -21 5 -9 -9 16 -26 38 -26 21 0 43 26 34
40 -4 6 -18 15 -32 21 -13 5 -21 13 -18 19 4 7 13 6 27 -1 16 -9 19 -8 16 3
-7 20 -43 21 -58 2z"/>
<path d="M4281 4055 c1 -38 4 -60 6 -47 3 16 11 22 29 22 33 0 52 40 36 75 -9
20 -18 25 -42 23 l-30 -2 1 -71z m59 25 c0 -30 -21 -45 -39 -27 -23 23 -4 71
25 60 8 -3 14 -18 14 -33z"/>
<path d="M4478 4105 c-24 -53 36 -103 72 -60 14 17 3 20 -20 5 -9 -5 -19 -5
-27 2 -22 18 -14 28 22 28 38 0 40 2 25 31 -16 28 -58 25 -72 -6z m62 -6 c0
-5 -11 -9 -25 -9 -26 0 -34 15 -12 23 16 5 37 -3 37 -14z"/>
<path d="M4582 4075 c1 -40 2 -43 5 -15 3 20 13 42 26 52 l22 18 -27 -2 c-27
-2 -28 -5 -26 -53z"/>
<path d="M4642 4075 c1 -43 2 -45 5 -13 3 25 11 42 24 48 16 9 21 7 30 -17 18
-48 22 -83 10 -83 -6 0 -11 -4 -11 -10 0 -26 23 -5 40 36 27 62 36 99 22 90
-6 -3 -13 -20 -17 -36 -8 -36 -21 -31 -30 10 -6 27 -10 30 -41 28 l-34 -2 2
-51z"/>
<path d="M4010 3886 c0 -37 4 -66 10 -66 6 0 10 11 10 25 0 19 5 25 23 25 35
0 59 22 55 51 -3 21 -9 24 -50 27 l-48 3 0 -65z m80 24 c0 -16 -7 -20 -30 -20
-23 0 -30 4 -30 20 0 16 7 20 30 20 23 0 30 -4 30 -20z"/>
<path d="M4143 3885 c0 -38 2 -53 4 -32 2 20 2 52 0 70 -2 17 -4 1 -4 -38z"/>
<path d="M4230 3886 c0 -37 4 -66 10 -66 6 0 10 11 10 25 0 19 5 25 23 25 35
0 59 22 55 51 -3 21 -9 24 -50 27 l-48 3 0 -65z m80 24 c0 -16 -7 -20 -30 -20
-23 0 -30 4 -30 20 0 16 7 20 30 20 23 0 30 -4 30 -20z"/>
<path d="M4350 3940 c0 -5 5 -10 10 -10 6 0 10 5 10 10 0 6 -4 10 -10 10 -5 0
-10 -4 -10 -10z"/>
<path d="M4640 3935 c-7 -9 -10 -18 -6 -22 3 -4 12 2 20 12 7 10 18 15 24 11
21 -13 13 -44 -18 -66 -43 -31 -39 -50 10 -50 22 0 40 5 40 10 0 6 -12 10 -27
10 l-27 0 27 28 c29 31 34 51 15 70 -17 17 -43 15 -58 -3z"/>
<path d="M4350 3870 c0 -27 5 -50 10 -50 6 0 10 23 10 50 0 28 -4 50 -10 50
-5 0 -10 -22 -10 -50z"/>
<path d="M4402 3908 c-7 -7 -12 -24 -12 -38 0 -46 43 -67 70 -35 18 22 5 31
-15 11 -21 -20 -22 -20 -35 3 -17 32 -2 54 33 47 25 -5 28 -4 17 9 -15 18 -42
19 -58 3z"/>
<path d="M4491 3906 c-31 -37 9 -103 47 -80 36 23 23 94 -18 94 -10 0 -23 -6
-29 -14z m59 -36 c0 -11 -9 -24 -20 -30 -26 -14 -46 20 -30 50 9 16 15 18 30
10 11 -6 20 -19 20 -30z"/>
<path d="M6590 5296 c0 -37 4 -66 10 -66 6 0 10 11 10 25 0 19 5 25 23 25 35
0 59 22 55 51 -3 21 -9 24 -50 27 l-48 3 0 -65z m80 24 c0 -16 -7 -20 -30 -20
-23 0 -30 4 -30 20 0 16 7 20 30 20 23 0 30 -4 30 -20z"/>
<path d="M6710 5280 c0 -61 18 -67 22 -7 2 27 7 41 16 40 6 -2 12 2 12 7 0 6
-11 10 -25 10 -23 0 -25 -3 -25 -50z"/>
<path d="M6782 5318 c-17 -17 -15 -63 3 -78 16 -13 65 -6 65 10 0 13 -13 13
-27 -1 -7 -7 -16 -5 -29 8 -17 17 -17 18 19 21 38 3 47 18 25 40 -7 7 -19 12
-28 12 -9 0 -21 -5 -28 -12z m46 -16 c2 -7 -6 -12 -17 -12 -21 0 -27 11 -14
24 9 9 26 2 31 -12z"/>
<path d="M6877 5323 c-15 -14 -5 -33 24 -49 24 -12 28 -18 18 -24 -7 -5 -21
-4 -32 2 -15 8 -18 7 -15 -4 3 -7 18 -13 34 -13 22 0 30 5 32 21 2 17 -5 24
-30 33 -26 9 -30 14 -18 21 9 5 19 5 27 -2 15 -13 28 -4 18 11 -7 12 -48 15
-58 4z"/>
<path d="M6972 5318 c-17 -17 -15 -63 3 -78 16 -13 65 -6 65 10 0 13 -13 13
-27 -1 -7 -7 -16 -5 -29 8 -17 17 -17 18 19 21 38 3 47 18 25 40 -7 7 -19 12
-28 12 -9 0 -21 -5 -28 -12z m46 -16 c2 -7 -6 -12 -17 -12 -21 0 -27 11 -14
24 9 9 26 2 31 -12z"/>
<path d="M7060 5278 c0 -26 5 -48 10 -48 6 0 10 18 10 39 0 24 5 41 14 44 20
8 26 -2 26 -45 0 -21 5 -38 10 -38 12 0 13 69 2 87 -4 6 -22 11 -40 11 -32 -1
-32 -2 -32 -50z"/>
<path d="M7172 5318 c-7 -7 -12 -24 -12 -38 0 -46 43 -67 70 -35 18 22 5 31
-15 11 -21 -20 -22 -20 -35 3 -17 32 -2 54 33 47 25 -5 28 -4 17 9 -15 18 -42
19 -58 3z"/>
<path d="M7262 5318 c-17 -17 -15 -63 3 -78 16 -13 65 -6 65 10 0 13 -13 13
-27 -1 -7 -7 -16 -5 -29 8 -17 17 -17 18 19 21 38 3 47 18 25 40 -7 7 -19 12
-28 12 -9 0 -21 -5 -28 -12z m46 -16 c2 -7 -6 -12 -17 -12 -21 0 -27 11 -14
24 9 9 26 2 31 -12z"/>
<path d="M7250 5135 c-7 -9 -10 -18 -6 -22 3 -4 12 2 20 12 7 10 18 15 24 11
21 -13 13 -44 -18 -66 -43 -31 -39 -50 10 -50 22 0 40 5 40 10 0 6 -12 10 -27
10 l-27 0 27 28 c29 31 34 51 15 70 -17 17 -43 15 -58 -3z"/>
<path d="M6657 5113 c-15 -14 -5 -33 24 -49 24 -12 28 -18 18 -24 -7 -5 -21
-4 -32 2 -15 8 -18 7 -15 -4 3 -7 18 -13 34 -13 22 0 30 5 32 21 2 17 -5 24
-30 33 -26 9 -30 14 -18 21 9 5 19 5 27 -2 15 -13 28 -4 18 11 -7 12 -48 15
-58 4z"/>
<path d="M6752 5108 c-17 -17 -15 -63 3 -78 16 -13 65 -6 65 10 0 13 -13 13
-27 -1 -7 -7 -16 -5 -29 8 -17 17 -17 18 19 21 38 3 47 18 25 40 -7 7 -19 12
-28 12 -9 0 -21 -5 -28 -12z m46 -16 c2 -7 -6 -12 -17 -12 -21 0 -27 11 -14
24 9 9 26 2 31 -12z"/>
<path d="M6840 5068 c0 -26 5 -48 10 -48 6 0 10 18 10 39 0 24 5 41 14 44 20
8 26 -2 26 -45 0 -21 5 -38 10 -38 12 0 13 69 2 87 -4 6 -22 11 -40 11 -32 -1
-32 -2 -32 -50z"/>
<path d="M6947 5113 c-15 -14 -5 -33 24 -49 24 -12 28 -18 18 -24 -7 -5 -21
-4 -32 2 -15 8 -18 7 -15 -4 3 -7 18 -13 34 -13 22 0 30 5 32 21 2 17 -5 24
-30 33 -26 9 -30 14 -18 21 9 5 19 5 27 -2 15 -13 28 -4 18 11 -7 12 -48 15
-58 4z"/>
<path d="M7041 5106 c-31 -37 9 -103 47 -80 36 23 23 94 -18 94 -10 0 -23 -6
-29 -14z m59 -36 c0 -11 -9 -24 -20 -30 -26 -14 -46 20 -30 50 9 16 15 18 30
10 11 -6 20 -19 20 -30z"/>
<path d="M7130 5070 c0 -61 18 -67 22 -7 2 27 7 41 16 40 6 -2 12 2 12 7 0 6
-11 10 -25 10 -23 0 -25 -3 -25 -50z"/>
<path d="M1206 5278 c-7 -37 -2 -45 18 -29 11 9 17 8 30 -4 8 -9 13 -22 10
-30 -9 -22 -33 -26 -43 -7 -5 9 -13 14 -17 10 -10 -11 15 -38 35 -38 23 0 41
20 41 46 0 26 -24 48 -45 40 -9 -3 -15 0 -15 9 0 10 10 15 30 15 17 0 30 5 30
10 0 6 -15 10 -34 10 -30 0 -34 -4 -40 -32z"/>
<path d="M1550 5300 c0 -5 5 -10 10 -10 6 0 10 5 10 10 0 6 -4 10 -10 10 -5 0
-10 -4 -10 -10z"/>
<path d="M1372 5268 c-7 -7 -12 -24 -12 -38 0 -46 43 -67 70 -35 18 22 5 31
-15 11 -21 -20 -22 -20 -35 3 -17 32 -2 54 33 47 25 -5 28 -4 17 9 -15 18 -42
19 -58 3z"/>
<path d="M1461 5266 c-31 -37 9 -103 47 -80 36 23 23 94 -18 94 -10 0 -23 -6
-29 -14z m59 -36 c0 -11 -9 -24 -20 -30 -15 -8 -21 -6 -30 10 -16 30 4 64 30
50 11 -6 20 -19 20 -30z"/>
<path d="M1550 5230 c0 -27 5 -50 10 -50 6 0 10 23 10 50 0 28 -4 50 -10 50
-5 0 -10 -22 -10 -50z"/>
<path d="M1590 5228 c0 -26 5 -48 10 -48 6 0 10 18 10 39 0 24 5 41 14 44 20
8 26 -2 26 -45 0 -21 5 -38 10 -38 12 0 13 69 2 87 -4 6 -22 11 -40 11 -32 -1
-32 -2 -32 -50z"/>
<path d="M1290 5220 c0 -5 14 -10 30 -10 17 0 30 5 30 10 0 6 -13 10 -30 10
-16 0 -30 -4 -30 -10z"/>
<path d="M1081 4995 c1 -38 4 -60 6 -47 3 16 11 22 29 22 33 0 52 40 36 75 -9
20 -18 25 -42 23 l-30 -2 1 -71z m59 25 c0 -30 -21 -45 -39 -27 -23 23 -4 71
25 60 8 -3 14 -18 14 -33z"/>
<path d="M1182 5015 c1 -40 2 -43 5 -15 3 20 13 42 26 52 l22 18 -27 -2 c-27
-2 -28 -5 -26 -53z"/>
<path d="M1238 5045 c-24 -53 36 -103 72 -60 14 17 3 20 -20 5 -9 -5 -19 -5
-27 2 -22 18 -14 28 22 28 38 0 40 2 25 31 -16 28 -58 25 -72 -6z m62 -6 c0
-5 -11 -9 -25 -9 -26 0 -34 15 -12 23 16 5 37 -3 37 -14z"/>
<path d="M1340 5054 c-12 -14 -12 -18 5 -30 10 -8 25 -14 32 -14 7 0 13 -4 13
-9 0 -17 -21 -23 -36 -10 -8 6 -18 9 -21 5 -9 -9 16 -26 38 -26 21 0 43 26 34
40 -4 6 -18 15 -32 21 -13 5 -21 13 -18 19 4 7 13 6 27 -1 16 -9 19 -8 16 3
-7 20 -43 21 -58 2z"/>
<path d="M1428 5045 c-24 -53 36 -103 72 -60 14 17 3 20 -20 5 -9 -5 -19 -5
-27 2 -22 18 -14 28 22 28 38 0 40 2 25 31 -16 28 -58 25 -72 -6z m62 -6 c0
-5 -11 -9 -25 -9 -26 0 -34 15 -12 23 16 5 37 -3 37 -14z"/>
<path d="M1532 5016 c1 -42 2 -45 5 -14 8 71 47 70 56 -2 3 -23 4 -18 3 15 -1
49 -1 50 -33 51 l-33 1 2 -51z"/>
<path d="M1630 5051 c-14 -26 -13 -44 3 -66 17 -22 67 -14 67 12 0 15 -1 15
-18 0 -14 -13 -21 -14 -30 -5 -26 26 -2 79 25 56 15 -12 28 -5 18 11 -11 18
-54 12 -65 -8z"/>
<path d="M1718 5045 c-24 -53 36 -103 72 -60 14 17 3 20 -20 5 -9 -5 -19 -5
-27 2 -22 18 -14 28 22 28 38 0 40 2 25 31 -16 28 -58 25 -72 -6z m62 -6 c0
-5 -11 -9 -25 -9 -26 0 -34 15 -12 23 16 5 37 -3 37 -14z"/>
<path d="M1180 4834 c-12 -14 -12 -18 5 -30 10 -8 25 -14 32 -14 7 0 13 -4 13
-9 0 -17 -21 -23 -36 -10 -8 6 -18 9 -21 5 -9 -9 16 -26 38 -26 21 0 43 26 34
40 -4 6 -18 15 -32 21 -13 5 -21 13 -18 19 4 7 13 6 27 -1 16 -9 19 -8 16 3
-7 20 -43 21 -58 2z"/>
<path d="M1268 4825 c-24 -53 36 -103 72 -60 14 17 3 20 -20 5 -9 -5 -19 -5
-27 2 -22 18 -14 28 22 28 38 0 40 2 25 31 -16 28 -58 25 -72 -6z m62 -6 c0
-5 -11 -9 -25 -9 -26 0 -34 15 -12 23 16 5 37 -3 37 -14z"/>
<path d="M1372 4796 c1 -42 2 -45 5 -14 8 71 47 70 56 -2 3 -23 4 -18 3 15 -1
49 -1 50 -33 51 l-33 1 2 -51z"/>
<path d="M1470 4834 c-12 -14 -12 -18 5 -30 10 -8 25 -14 32 -14 7 0 13 -4 13
-9 0 -17 -21 -23 -36 -10 -8 6 -18 9 -21 5 -9 -9 16 -26 38 -26 21 0 43 26 34
40 -4 6 -18 15 -32 21 -13 5 -21 13 -18 19 4 7 13 6 27 -1 16 -9 19 -8 16 3
-7 20 -43 21 -58 2z"/>
<path d="M1558 4826 c-17 -39 3 -78 39 -74 35 4 50 29 37 65 -13 39 -59 45
-76 9z m62 -26 c0 -16 -6 -30 -12 -33 -24 -8 -38 5 -38 33 0 16 6 30 13 33 23
8 37 -5 37 -33z"/>
<path d="M1662 4795 c1 -40 2 -43 5 -15 3 20 13 42 26 52 l22 18 -27 -2 c-27
-2 -28 -5 -26 -53z"/>
<path d="M1177 4252 c-21 -23 -22 -33 -2 -26 12 5 15 -3 15 -40 0 -25 5 -46
10 -46 6 0 10 28 10 65 0 68 -6 77 -33 47z"/>
<path d="M1261 4256 c-18 -21 -10 -97 12 -110 28 -18 52 4 55 53 3 46 -10 71
-38 71 -10 0 -23 -6 -29 -14z m49 -51 c0 -37 -3 -45 -19 -45 -11 0 -21 9 -25
23 -8 34 4 67 25 67 16 0 19 -8 19 -45z"/>
<path d="M1600 4260 c0 -5 5 -10 10 -10 6 0 10 5 10 10 0 6 -4 10 -10 10 -5 0
-10 -4 -10 -10z"/>
<path d="M1422 4228 c-7 -7 -12 -24 -12 -38 0 -46 43 -67 70 -35 18 22 5 31
-15 11 -21 -20 -22 -20 -35 3 -17 32 -2 54 33 47 25 -5 28 -4 17 9 -15 18 -42
19 -58 3z"/>
<path d="M1511 4226 c-31 -37 9 -103 47 -80 36 23 23 94 -18 94 -10 0 -23 -6
-29 -14z m59 -36 c0 -11 -9 -24 -20 -30 -15 -8 -21 -6 -30 10 -16 30 4 64 30
50 11 -6 20 -19 20 -30z"/>
<path d="M1600 4190 c0 -27 5 -50 10 -50 6 0 10 23 10 50 0 28 -4 50 -10 50
-5 0 -10 -22 -10 -50z"/>
<path d="M1640 4188 c0 -26 5 -48 10 -48 6 0 10 18 10 39 0 24 5 41 14 44 20
8 26 -2 26 -45 0 -21 5 -38 10 -38 12 0 13 69 2 87 -4 6 -22 11 -40 11 -32 -1
-32 -2 -32 -50z"/>
<path d="M1340 4180 c0 -5 14 -10 30 -10 17 0 30 5 30 10 0 6 -13 10 -30 10
-16 0 -30 -4 -30 -10z"/>
<path d="M1081 3945 c1 -38 4 -60 6 -47 3 16 11 22 29 22 33 0 52 40 36 75 -9
20 -18 25 -42 23 l-30 -2 1 -71z m59 25 c0 -30 -21 -45 -39 -27 -23 23 -4 71
25 60 8 -3 14 -18 14 -33z"/>
<path d="M1182 3965 c1 -40 2 -43 5 -15 3 20 13 42 26 52 l22 18 -27 -2 c-27
-2 -28 -5 -26 -53z"/>
<path d="M1238 3995 c-24 -53 36 -103 72 -60 14 17 3 20 -20 5 -9 -5 -19 -5
-27 2 -22 18 -14 28 22 28 38 0 40 2 25 31 -16 28 -58 25 -72 -6z m62 -6 c0
-5 -11 -9 -25 -9 -26 0 -34 15 -12 23 16 5 37 -3 37 -14z"/>
<path d="M1340 4004 c-12 -14 -12 -18 5 -30 10 -8 25 -14 32 -14 7 0 13 -4 13
-9 0 -17 -21 -23 -36 -10 -8 6 -18 9 -21 5 -9 -9 16 -26 38 -26 21 0 43 26 34
40 -4 6 -18 15 -32 21 -13 5 -21 13 -18 19 4 7 13 6 27 -1 16 -9 19 -8 16 3
-7 20 -43 21 -58 2z"/>
<path d="M1428 3995 c-24 -53 36 -103 72 -60 14 17 3 20 -20 5 -9 -5 -19 -5
-27 2 -22 18 -14 28 22 28 38 0 40 2 25 31 -16 28 -58 25 -72 -6z m62 -6 c0
-5 -11 -9 -25 -9 -26 0 -34 15 -12 23 16 5 37 -3 37 -14z"/>
<path d="M1532 3966 c1 -42 2 -45 5 -14 8 71 47 70 56 -2 3 -23 4 -18 3 15 -1
49 -1 50 -33 51 l-33 1 2 -51z"/>
<path d="M1630 4001 c-14 -26 -13 -44 3 -66 17 -22 67 -14 67 12 0 15 -1 15
-18 0 -14 -13 -21 -14 -30 -5 -26 26 -2 79 25 56 15 -12 28 -5 18 11 -11 18
-54 12 -65 -8z"/>
<path d="M1718 3995 c-24 -53 36 -103 72 -60 14 17 3 20 -20 5 -9 -5 -19 -5
-27 2 -22 18 -14 28 22 28 38 0 40 2 25 31 -16 28 -58 25 -72 -6z m62 -6 c0
-5 -11 -9 -25 -9 -26 0 -34 15 -12 23 16 5 37 -3 37 -14z"/>
<path d="M1180 3794 c-12 -14 -12 -18 5 -30 10 -8 25 -14 32 -14 7 0 13 -4 13
-9 0 -17 -21 -23 -36 -10 -8 6 -18 9 -21 5 -9 -9 16 -26 38 -26 21 0 43 26 34
40 -4 6 -18 15 -32 21 -13 5 -21 13 -18 19 4 7 13 6 27 -1 16 -9 19 -8 16 3
-7 20 -43 21 -58 2z"/>
<path d="M1268 3785 c-24 -53 36 -103 72 -60 14 17 3 20 -20 5 -9 -5 -19 -5
-27 2 -22 18 -14 28 22 28 38 0 40 2 25 31 -16 28 -58 25 -72 -6z m62 -6 c0
-5 -11 -9 -25 -9 -26 0 -34 15 -12 23 16 5 37 -3 37 -14z"/>
<path d="M1372 3756 c1 -42 2 -45 5 -14 8 71 47 70 56 -2 3 -23 4 -18 3 15 -1
49 -1 50 -33 51 l-33 1 2 -51z"/>
<path d="M1470 3794 c-12 -14 -12 -18 5 -30 10 -8 25 -14 32 -14 7 0 13 -4 13
-9 0 -17 -21 -23 -36 -10 -8 6 -18 9 -21 5 -9 -9 16 -26 38 -26 21 0 43 26 34
40 -4 6 -18 15 -32 21 -13 5 -21 13 -18 19 4 7 13 6 27 -1 16 -9 19 -8 16 3
-7 20 -43 21 -58 2z"/>
<path d="M1558 3786 c-17 -39 3 -78 39 -74 35 4 50 29 37 65 -13 39 -59 45
-76 9z m62 -26 c0 -16 -6 -30 -12 -33 -24 -8 -38 5 -38 33 0 16 6 30 13 33 23
8 37 -5 37 -33z"/>
<path d="M1662 3755 c1 -40 2 -43 5 -15 3 20 13 42 26 52 l22 18 -27 -2 c-27
-2 -28 -5 -26 -53z"/>
<path d="M9225 3916 c-13 -9 -19 -26 -19 -51 0 -61 61 -88 104 -45 56 56 -21
143 -85 96z m80 -51 c0 -17 -8 -33 -22 -42 -19 -13 -24 -12 -42 6 -26 26 -26
46 0 72 18 18 23 19 42 6 14 -9 22 -25 22 -42z"/>
<path d="M9350 3865 c0 -37 4 -65 10 -65 6 0 10 21 10 48 l0 47 31 -47 c17
-27 35 -48 40 -48 5 0 9 29 9 65 0 37 -4 65 -10 65 -5 0 -10 -21 -10 -47 l0
-48 -31 48 c-17 26 -35 47 -40 47 -5 0 -9 -29 -9 -65z"/>
<path d="M9486 3877 c-9 -33 -15 -64 -13 -70 2 -7 12 14 21 46 9 33 15 64 13
70 -2 7 -12 -14 -21 -46z"/>
<path d="M9545 3916 c-13 -9 -19 -26 -19 -51 0 -61 61 -88 104 -45 56 56 -21
143 -85 96z m80 -51 c0 -17 -8 -33 -22 -42 -19 -13 -24 -12 -42 6 -26 26 -26
46 0 72 18 18 23 19 42 6 14 -9 22 -25 22 -42z"/>
<path d="M9670 3865 c0 -37 4 -65 10 -65 6 0 10 11 10 25 0 21 5 25 30 25 17
0 30 5 30 10 0 6 -13 10 -30 10 -23 0 -30 4 -30 20 0 16 7 20 35 20 19 0 35 5
35 10 0 6 -20 10 -45 10 l-45 0 0 -65z"/>
<path d="M9780 3865 c0 -37 4 -65 10 -65 6 0 10 11 10 25 0 21 5 25 30 25 17
0 30 5 30 10 0 6 -13 10 -30 10 -23 0 -30 4 -30 20 0 16 7 20 35 20 19 0 35 5
35 10 0 6 -20 10 -45 10 l-45 0 0 -65z"/>
<path d="M9290 3655 l0 -65 40 0 c44 0 68 27 52 57 -5 9 -7 25 -4 35 6 25 -13
38 -55 38 l-33 0 0 -65z m70 30 c0 -9 -9 -15 -25 -15 -16 0 -25 6 -25 15 0 9
9 15 25 15 16 0 25 -6 25 -15z m5 -55 c0 -9 -11 -16 -27 -18 -23 -3 -28 1 -28
18 0 17 5 21 28 18 16 -2 27 -9 27 -18z"/>
<path d="M9513 3706 c-11 -20 -2 -108 12 -113 6 -2 9 21 8 58 -2 67 -6 79 -20
55z"/>
<path d="M9563 3706 c-11 -20 -2 -108 12 -113 6 -2 9 21 8 58 -2 67 -6 79 -20
55z"/>
<path d="M9414 3645 c1 -49 1 -50 34 -51 l32 -1 -1 51 c-1 51 -1 51 -9 13 -13
-70 -44 -69 -53 3 -3 23 -4 18 -3 -15z"/>
<path d="M9608 3666 c-17 -39 3 -78 39 -74 35 4 50 29 37 65 -13 39 -59 45
-76 9z m62 -26 c0 -16 -6 -30 -12 -33 -24 -8 -38 5 -38 33 0 16 6 30 13 33 23
8 37 -5 37 -33z"/>
<path d="M9712 3636 c1 -42 2 -45 5 -14 8 71 47 70 56 -2 3 -23 4 -18 3 15 -1
49 -1 50 -33 51 l-33 1 2 -51z"/>
<path d="M8660 2510 c0 -5 5 -10 10 -10 6 0 10 5 10 10 0 6 -4 10 -10 10 -5 0
-10 -4 -10 -10z"/>
<path d="M8799 2513 c0 -5 0 -34 1 -67 1 -51 -1 -58 -15 -52 -9 3 -26 6 -38 6
-21 0 -21 1 2 13 13 6 23 16 22 21 -2 5 3 12 9 16 8 5 1 10 -20 15 -38 8 -49
-3 -45 -49 2 -27 7 -32 36 -36 56 -10 74 0 74 39 0 20 6 36 14 39 10 3 12 -5
9 -37 -3 -32 0 -41 12 -41 13 0 15 8 11 43 -5 35 -10 42 -29 41 -18 0 -22 5
-22 28 0 15 -4 28 -10 28 -5 0 -10 -3 -11 -7z m-41 -76 c2 -10 -3 -17 -12 -17
-10 0 -16 9 -16 21 0 24 23 21 28 -4z"/>
<path d="M8985 2510 c-3 -5 -1 -10 4 -10 7 0 11 -23 11 -55 0 -42 4 -57 16
-62 27 -10 49 11 49 48 0 31 -3 34 -27 34 -24 -1 -28 3 -28 27 0 28 -13 37
-25 18z m70 -69 c8 -26 -5 -53 -24 -49 -29 6 -27 68 3 68 8 0 17 -8 21 -19z"/>
<path d="M9189 2518 c0 -2 -1 -33 -2 -71 -2 -66 -1 -67 23 -66 14 0 19 3 13 6
-9 3 -13 27 -13 69 0 36 -4 64 -10 64 -5 0 -10 -1 -11 -2z"/>
<path d="M9235 2510 c-3 -5 -1 -10 4 -10 7 0 11 -23 11 -55 0 -42 4 -57 16
-62 27 -10 49 11 49 48 0 31 -3 34 -27 34 -24 -1 -28 3 -28 27 0 28 -13 37
-25 18z m70 -69 c8 -26 -5 -53 -24 -49 -29 6 -27 68 3 68 8 0 17 -8 21 -19z"/>
<path d="M8538 2503 c7 -3 12 -25 12 -58 0 -33 -5 -55 -12 -59 -7 -3 9 -4 36
-3 34 1 51 7 54 17 4 12 2 13 -9 3 -7 -7 -21 -13 -32 -13 -17 0 -18 7 -15 60
3 58 2 60 -22 59 -14 0 -19 -3 -12 -6z"/>
<path d="M8895 2484 c-10 -24 -6 -86 6 -98 6 -6 14 -5 22 3 10 11 10 13 0 7
-9 -5 -13 3 -13 28 0 22 5 36 13 36 8 0 9 3 1 8 -6 4 -13 14 -16 21 -3 12 -6
10 -13 -5z"/>
<path d="M8659 2468 c0 -2 -1 -22 -2 -46 -2 -39 0 -42 23 -41 14 0 19 3 13 6
-8 2 -13 22 -13 44 0 21 -4 39 -10 39 -5 0 -10 -1 -11 -2z"/>
<path d="M9085 2453 c15 -74 14 -73 44 -70 17 1 30 5 30 10 4 43 -1 77 -11 77
-8 0 -13 -14 -13 -37 0 -20 -6 -38 -12 -40 -9 -3 -13 8 -13 36 0 29 -4 41 -14
41 -8 0 -13 -7 -11 -17z"/>
<path d="M8710 2359 c0 -11 25 -22 39 -17 6 1 -1 8 -14 15 -14 6 -25 7 -25 2z"/>
<path d="M1529 2088 c0 -2 -1 -33 -2 -71 -2 -66 -1 -67 23 -66 14 0 19 3 13 6
-9 3 -13 27 -13 69 0 36 -4 64 -10 64 -5 0 -10 -1 -11 -2z"/>
<path d="M1769 2088 c0 -2 -1 -33 -2 -71 -2 -56 1 -67 15 -67 12 0 15 6 11 23
l-5 22 20 -22 c11 -13 26 -23 33 -23 7 0 2 11 -12 26 l-24 26 24 19 c13 10 18
19 11 19 -6 0 -20 -10 -31 -22 l-18 -23 -1 48 c0 26 -4 47 -10 47 -5 0 -10 -1
-11 -2z"/>
<path d="M1058 2073 c7 -3 12 -25 12 -58 0 -33 -5 -55 -12 -58 -7 -3 7 -6 32
-6 60 -1 90 20 90 63 0 47 -26 66 -86 65 -27 0 -43 -3 -36 -6z m86 -19 c33
-32 10 -94 -35 -94 -16 0 -19 7 -19 55 0 48 3 55 19 55 11 0 27 -7 35 -16z"/>
<path d="M1210 2026 c-28 -35 11 -93 48 -70 35 22 22 84 -18 84 -10 0 -23 -7
-30 -14z m48 -35 c3 -27 0 -32 -15 -29 -19 3 -28 30 -19 54 10 26 31 10 34
-25z"/>
<path d="M1310 2026 c-28 -35 11 -93 48 -70 35 22 22 84 -18 84 -10 0 -23 -7
-30 -14z m48 -35 c3 -27 0 -32 -15 -29 -19 3 -28 30 -19 54 10 26 31 10 34
-25z"/>
<path d="M1395 2031 c-3 -6 -1 -11 4 -11 15 0 14 -57 -1 -63 -7 -3 0 -6 16 -6
23 -1 26 1 17 13 -7 8 -11 27 -9 42 3 27 -15 44 -27 25z"/>
<path d="M1445 2030 c3 -5 8 -10 11 -10 2 0 4 5 4 10 0 6 -5 10 -11 10 -5 0
-7 -4 -4 -10z"/>
<path d="M1590 2026 c-28 -35 11 -93 48 -70 35 22 22 84 -18 84 -10 0 -23 -7
-30 -14z m48 -35 c3 -27 0 -32 -15 -29 -19 3 -28 30 -19 54 10 26 31 10 34
-25z"/>
<path d="M1690 2026 c-27 -34 8 -88 46 -71 18 8 18 9 -3 12 -28 5 -45 26 -37
47 7 19 30 21 37 4 2 -7 8 -10 12 -6 11 10 -4 28 -24 28 -10 0 -24 -7 -31 -14z"/>
<path d="M1063 1803 c-6 -15 13 -36 41 -46 6 -2 7 -8 3 -13 -4 -4 -17 -3 -27
4 -16 10 -20 10 -20 -1 0 -9 10 -14 27 -13 38 1 42 31 7 49 -18 9 -23 17 -15
21 7 4 18 2 26 -4 12 -10 15 -10 15 2 0 20 -49 22 -57 1z"/>
<path d="M1151 1806 c-28 -34 6 -88 45 -71 18 8 18 9 -3 12 -12 2 -27 11 -33
19 -10 12 -7 14 20 14 25 0 31 4 28 18 -4 22 -41 27 -57 8z m39 -6 c0 -5 -9
-10 -21 -10 -11 0 -17 5 -14 10 3 6 13 10 21 10 8 0 14 -4 14 -10z"/>
<path d="M1229 1817 c0 -1 -1 -21 -2 -45 -2 -31 2 -42 13 -42 11 0 15 11 15
37 0 22 5 38 14 41 10 3 12 -5 9 -37 -3 -32 0 -41 12 -41 13 0 15 8 11 43 -6
39 -8 42 -38 44 -18 1 -33 1 -34 0z"/>
<path d="M1323 1803 c-6 -15 13 -36 41 -46 6 -2 7 -8 3 -13 -4 -4 -17 -3 -27
4 -16 10 -20 10 -20 -1 0 -9 10 -14 27 -13 38 1 42 31 7 49 -18 9 -23 17 -15
21 7 4 18 2 26 -4 12 -10 15 -10 15 2 0 20 -49 22 -57 1z"/>
<path d="M1410 1806 c-28 -35 11 -93 48 -70 35 22 22 84 -18 84 -10 0 -23 -7
-30 -14z m48 -35 c3 -27 0 -32 -15 -29 -19 3 -28 30 -19 54 10 26 31 10 34
-25z"/>
<path d="M1495 1811 c-3 -6 -1 -11 4 -11 15 0 14 -57 -1 -63 -7 -3 0 -6 16 -6
23 -1 26 1 17 13 -7 8 -11 27 -9 42 3 27 -15 44 -27 25z"/>
<path d="M1545 1810 c3 -5 8 -10 11 -10 2 0 4 5 4 10 0 6 -5 10 -11 10 -5 0
-7 -4 -4 -10z"/>
<path d="M4189 2043 c0 -5 0 -34 1 -65 2 -64 -17 -81 -22 -20 -3 35 -5 37 -37
37 -33 0 -34 -1 -35 -43 -1 -31 3 -42 14 -42 11 0 15 11 15 37 0 22 5 38 14
41 10 3 12 -5 9 -37 l-4 -41 37 0 c33 0 37 2 32 23 l-5 22 20 -22 c12 -14 32
-23 49 -23 26 0 28 3 28 37 0 22 5 38 14 41 10 3 12 -5 9 -37 -3 -32 0 -41 12
-41 13 0 15 8 11 43 l-6 42 -49 1 c-40 1 -54 -3 -68 -20 -17 -21 -17 -20 -18
27 0 26 -4 47 -10 47 -5 0 -10 -3 -11 -7z m89 -91 c4 -37 -7 -41 -33 -12 -15
16 -16 22 -5 35 19 23 35 13 38 -23z"/>
<path d="M3878 2033 c7 -3 12 -25 12 -58 0 -33 -5 -55 -12 -59 -7 -3 11 -4 41
-3 40 1 57 7 65 20 9 15 7 21 -8 33 -11 8 -14 14 -8 14 16 0 15 33 0 48 -7 7
-32 12 -57 11 -26 0 -40 -3 -33 -6z m77 -28 c0 -13 -8 -21 -22 -23 -19 -3 -23
1 -23 23 0 22 4 26 23 23 14 -2 22 -10 22 -23z m3 -47 c15 -15 -3 -38 -29 -38
-14 0 -19 7 -19 25 0 27 26 35 48 13z"/>
<path d="M4475 2014 c-10 -24 -6 -86 6 -98 6 -6 14 -5 22 3 10 11 10 13 0 7
-9 -5 -13 3 -13 28 0 22 5 36 13 36 8 0 9 3 1 8 -6 4 -13 14 -16 21 -3 12 -6
10 -13 -5z"/>
<path d="M4015 1990 c-4 -6 -4 -14 0 -18 4 -4 10 -1 12 6 5 13 33 17 33 4 0
-5 -12 -14 -26 -21 -37 -16 -28 -46 14 -48 33 -1 33 -1 30 40 -3 37 -6 42 -30
45 -14 2 -29 -2 -33 -8z m42 -55 c-4 -8 -11 -15 -17 -15 -14 0 -13 27 3 33 16
6 21 1 14 -18z"/>
<path d="M4380 1986 c-28 -35 11 -93 48 -70 35 22 22 84 -18 84 -10 0 -23 -7
-30 -14z m48 -35 c3 -27 0 -32 -15 -29 -19 3 -28 30 -19 54 10 26 31 10 34
-25z"/>
<path d="M4531 1986 c-28 -34 6 -88 45 -71 18 8 18 9 -3 12 -12 2 -27 11 -33
19 -10 12 -7 14 20 14 25 0 31 4 28 18 -4 22 -41 27 -57 8z m39 -6 c0 -5 -9
-10 -21 -10 -11 0 -17 5 -14 10 3 6 13 10 21 10 8 0 14 -4 14 -10z"/>
<path d="M4385 1820 c-3 -5 -1 -10 4 -10 7 0 11 -23 11 -55 0 -42 4 -57 16
-62 27 -10 49 11 49 48 0 31 -3 34 -27 34 -24 -1 -28 3 -28 27 0 28 -13 37
-25 18z m70 -69 c8 -26 -5 -53 -24 -49 -29 6 -27 68 3 68 8 0 17 -8 21 -19z"/>
<path d="M4669 1828 c0 -2 -1 -33 -2 -71 -2 -56 1 -67 15 -67 12 0 15 6 11 23
l-5 22 20 -22 c11 -13 26 -23 33 -23 7 0 2 11 -12 26 l-24 26 24 19 c13 10 18
19 11 19 -6 0 -20 -10 -31 -22 l-18 -23 -1 48 c0 26 -4 47 -10 47 -5 0 -10 -1
-11 -2z"/>
<path d="M4125 1794 c-10 -24 -6 -86 6 -98 6 -6 14 -5 22 3 10 11 10 13 0 7
-9 -5 -13 3 -13 28 0 22 5 36 13 36 8 0 9 3 1 8 -6 4 -13 14 -16 21 -3 12 -6
10 -13 -5z"/>
<path d="M3879 1777 c0 -1 -1 -21 -2 -45 -2 -31 2 -42 13 -42 11 0 15 11 15
37 0 22 5 38 14 41 10 3 12 -5 9 -37 -3 -32 0 -41 12 -41 13 0 15 8 11 43 -6
39 -8 42 -38 44 -18 1 -33 1 -34 0z"/>
<path d="M3969 1772 c9 -6 12 -22 9 -46 -3 -28 -1 -36 12 -36 26 0 12 84 -15
88 -15 2 -17 1 -6 -6z"/>
<path d="M4030 1766 c-28 -35 11 -93 48 -70 35 22 22 84 -18 84 -10 0 -23 -7
-30 -14z m48 -35 c3 -27 0 -32 -15 -29 -19 3 -28 30 -19 54 10 26 31 10 34
-25z"/>
<path d="M4180 1766 c-28 -35 11 -93 48 -70 35 22 22 84 -18 84 -10 0 -23 -7
-30 -14z m48 -35 c3 -27 0 -32 -15 -29 -19 3 -28 30 -19 54 10 26 31 10 34
-25z"/>
<path d="M4265 1771 c-3 -6 -1 -11 4 -11 15 0 14 -57 -1 -63 -7 -3 0 -6 16 -6
23 -1 26 1 17 13 -7 8 -11 27 -9 42 3 27 -15 44 -27 25z"/>
<path d="M4315 1770 c3 -5 8 -10 11 -10 2 0 4 5 4 10 0 6 -5 10 -11 10 -5 0
-7 -4 -4 -10z"/>
<path d="M4495 1770 c-4 -6 -4 -14 0 -18 4 -4 10 -1 12 6 5 13 33 17 33 4 0
-5 -12 -14 -26 -21 -37 -16 -28 -46 14 -48 33 -1 33 -1 30 40 -3 37 -6 42 -30
45 -14 2 -29 -2 -33 -8z m42 -55 c-4 -8 -11 -15 -17 -15 -14 0 -13 27 3 33 16
6 21 1 14 -18z"/>
<path d="M4590 1766 c-27 -34 8 -88 46 -71 18 8 18 9 -3 12 -28 5 -45 26 -37
47 7 19 30 21 37 4 2 -7 8 -10 12 -6 11 10 -4 28 -24 28 -10 0 -24 -7 -31 -14z"/>
<path d="M4589 1603 c-1 -5 0 -18 1 -30 1 -17 -3 -21 -14 -17 -36 14 -63 -49
-33 -74 14 -12 67 -11 67 1 0 4 0 34 0 67 0 33 -4 60 -10 60 -5 0 -10 -3 -11
-7z m-1 -82 c5 -34 -16 -51 -33 -27 -10 14 -11 24 -4 38 13 24 33 18 37 -11z"/>
<path d="M3890 1546 c-27 -34 8 -88 46 -71 18 8 18 9 -3 12 -28 5 -45 26 -37
47 7 19 30 21 37 4 2 -7 8 -10 12 -6 11 10 -4 28 -24 28 -10 0 -24 -7 -31 -14z"/>
<path d="M3980 1546 c-28 -35 11 -93 48 -70 35 22 22 84 -18 84 -10 0 -23 -7
-30 -14z m48 -35 c3 -27 0 -32 -15 -29 -19 3 -28 30 -19 54 10 26 31 10 34
-25z"/>
<path d="M4069 1557 c0 -1 -1 -21 -2 -45 -2 -31 2 -42 13 -42 11 0 15 11 15
37 0 22 5 38 14 41 10 3 12 -5 9 -37 -3 -32 0 -41 12 -41 13 0 15 8 11 43 -6
39 -8 42 -38 44 -18 1 -33 1 -34 0z"/>
<path d="M4159 1552 c9 -6 12 -22 9 -46 -4 -35 -3 -36 32 -36 34 0 35 1 35 37
0 22 5 38 14 41 10 3 12 -5 9 -37 -3 -32 0 -41 12 -41 13 0 15 8 11 43 -6 40
-7 42 -41 42 -34 0 -35 -1 -32 -37 2 -21 -1 -38 -7 -38 -5 0 -11 17 -13 37 -2
29 -8 39 -23 41 -15 2 -17 1 -6 -6z"/>
<path d="M4299 1552 c9 -6 12 -22 9 -46 -3 -28 -1 -36 12 -36 26 0 12 84 -15
88 -15 2 -17 1 -6 -6z"/>
<path d="M4355 1550 c-4 -6 -4 -14 0 -18 4 -4 10 -1 12 6 5 13 33 17 33 4 0
-5 -12 -14 -26 -21 -37 -16 -28 -46 14 -48 33 -1 33 -1 30 40 -3 37 -6 42 -30
45 -14 2 -29 -2 -33 -8z m42 -55 c-4 -8 -11 -15 -17 -15 -14 0 -13 27 3 33 16
6 21 1 14 -18z"/>
<path d="M4439 1557 c0 -1 -1 -21 -2 -45 -2 -31 2 -42 13 -42 11 0 15 11 15
37 0 22 5 38 14 41 10 3 12 -5 9 -37 -3 -32 0 -41 12 -41 13 0 15 8 11 43 -6
39 -8 42 -38 44 -18 1 -33 1 -34 0z"/>
<path d="M7159 1688 c0 -2 -1 -33 -2 -71 -2 -66 -1 -67 23 -66 14 0 19 3 13 6
-9 3 -13 27 -13 69 0 36 -4 64 -10 64 -5 0 -10 -1 -11 -2z"/>
<path d="M7028 1673 c7 -3 12 -25 12 -58 0 -33 -5 -55 -12 -58 -7 -3 13 -6 45
-6 31 -1 57 3 57 7 0 4 -16 6 -35 4 -32 -4 -35 -2 -35 23 0 24 3 27 25 23 16
-3 25 -1 25 7 0 8 -9 10 -25 7 -22 -4 -25 -1 -25 22 0 20 5 26 23 26 13 0 28
-5 35 -12 9 -9 12 -8 12 5 0 14 -10 17 -57 16 -32 0 -52 -3 -45 -6z"/>
<path d="M7395 1653 c-6 -10 -8 -36 -5 -58 5 -39 6 -40 49 -43 38 -2 42 -1 32
12 -7 8 -11 27 -9 43 2 19 -2 28 -12 29 -8 1 -20 2 -27 3 -6 0 -13 8 -15 16
-2 13 -5 13 -13 -2z m39 -29 c9 -4 16 -18 16 -34 0 -23 -4 -28 -20 -27 -16 1
-20 8 -20 34 0 36 0 36 24 27z"/>
<path d="M7221 1626 c-28 -34 6 -88 45 -71 18 8 18 9 -3 12 -12 2 -27 11 -33
19 -10 12 -7 14 20 14 25 0 31 4 28 18 -4 22 -41 27 -57 8z m39 -6 c0 -5 -9
-10 -21 -10 -11 0 -17 5 -14 10 3 6 13 10 21 10 8 0 14 -4 14 -10z"/>
<path d="M7310 1626 c-27 -34 8 -88 46 -71 18 8 18 9 -3 12 -28 5 -45 26 -37
47 7 19 30 21 37 4 2 -7 8 -10 12 -6 11 10 -4 28 -24 28 -10 0 -24 -7 -31 -14z"/>
<path d="M7485 1630 c3 -5 8 -10 11 -10 2 0 4 5 4 10 0 6 -5 10 -11 10 -5 0
-7 -4 -4 -10z"/>
<path d="M7520 1626 c-28 -35 11 -93 48 -70 35 22 22 84 -18 84 -10 0 -23 -7
-30 -14z m48 -35 c3 -27 0 -32 -15 -29 -19 3 -28 30 -19 54 10 26 31 10 34
-25z"/>
<path d="M7490 1460 c0 -5 5 -10 10 -10 6 0 10 5 10 10 0 6 -4 10 -10 10 -5 0
-10 -4 -10 -10z"/>
<path d="M7435 1434 c-10 -24 -6 -86 6 -98 6 -6 14 -5 22 3 10 11 10 13 0 7
-9 -5 -13 3 -13 28 0 22 5 36 13 36 8 0 9 3 1 8 -6 4 -13 14 -16 21 -3 12 -6
10 -13 -5z"/>
<path d="M6929 1417 c0 -1 -1 -21 -2 -45 -2 -31 2 -42 13 -42 11 0 15 11 15
37 0 22 5 38 14 41 10 3 12 -5 9 -37 -3 -32 0 -41 12 -41 13 0 15 8 11 43 -6
39 -8 42 -38 44 -18 1 -33 1 -34 0z"/>
<path d="M7019 1412 c9 -6 12 -22 9 -46 -3 -28 -1 -36 12 -36 26 0 12 84 -15
88 -15 2 -17 1 -6 -6z"/>
<path d="M7075 1410 c-4 -6 -4 -14 0 -18 4 -4 10 -1 12 6 5 13 33 17 33 4 0
-5 -12 -14 -26 -21 -37 -16 -28 -46 14 -48 33 -1 33 -1 30 40 -3 37 -6 42 -30
45 -14 2 -29 -2 -33 -8z m42 -55 c-4 -8 -11 -15 -17 -15 -14 0 -13 27 3 33 16
6 21 1 14 -18z"/>
<path d="M7167 1406 c-2 -6 -3 -24 -2 -41 2 -26 6 -31 36 -35 56 -10 74 0 74
39 0 20 6 36 14 39 10 3 12 -5 9 -37 -3 -32 0 -41 12 -41 13 0 15 8 11 43 l-6
42 -72 1 c-44 1 -74 -3 -76 -10z m41 -19 c2 -10 -3 -17 -12 -17 -10 0 -16 9
-16 21 0 24 23 21 28 -4z m42 -18 c0 -24 -3 -30 -16 -25 -9 3 -25 6 -37 6 -21
0 -21 1 3 13 14 8 24 19 23 25 -2 7 4 12 12 12 10 0 15 -10 15 -31z"/>
<path d="M7351 1406 c-28 -34 6 -88 45 -71 18 8 18 9 -3 12 -12 2 -27 11 -33
19 -10 12 -7 14 20 14 25 0 31 4 28 18 -4 22 -41 27 -57 8z m39 -6 c0 -5 -9
-10 -21 -10 -11 0 -17 5 -14 10 3 6 13 10 21 10 8 0 14 -4 14 -10z"/>
<path d="M7489 1418 c0 -2 -1 -22 -2 -46 -2 -39 0 -42 23 -41 14 0 19 3 13 6
-8 2 -13 22 -13 44 0 21 -4 39 -10 39 -5 0 -10 -1 -11 -2z"/>
<path d="M7550 1406 c-27 -34 8 -88 46 -71 18 8 18 9 -3 12 -28 5 -45 26 -37
47 7 19 30 21 37 4 2 -7 8 -10 12 -6 11 10 -4 28 -24 28 -10 0 -24 -7 -31 -14z"/>
<path d="M7160 1309 c0 -11 25 -22 39 -17 6 1 -1 8 -14 15 -14 6 -25 7 -25 2z"/>
<path d="M7089 1248 c0 -2 -1 -33 -2 -71 -2 -66 -1 -67 23 -66 14 0 19 3 13 6
-9 3 -13 27 -13 69 0 36 -4 64 -10 64 -5 0 -10 -1 -11 -2z"/>
<path d="M7329 1248 c0 -2 -1 -33 -2 -71 -2 -56 1 -67 15 -67 12 0 15 6 11 23
l-5 22 20 -22 c11 -13 26 -23 33 -23 7 0 2 11 -12 26 l-24 26 24 19 c13 10 18
19 11 19 -6 0 -20 -10 -31 -22 l-18 -23 -1 48 c0 26 -4 47 -10 47 -5 0 -10 -1
-11 -2z"/>
<path d="M7150 1186 c-28 -35 11 -93 48 -70 35 22 22 84 -18 84 -10 0 -23 -7
-30 -14z m48 -35 c3 -27 0 -32 -15 -29 -19 3 -28 30 -19 54 10 26 31 10 34
-25z"/>
<path d="M7250 1186 c-27 -34 8 -88 46 -71 18 8 18 9 -3 12 -28 5 -45 26 -37
47 7 19 30 21 37 4 2 -7 8 -10 12 -6 11 10 -4 28 -24 28 -10 0 -24 -7 -31 -14z"/>
<path d="M1088 783 c7 -3 12 -25 12 -58 0 -33 -5 -55 -12 -59 -7 -3 11 -4 41
-3 40 1 57 7 65 20 9 15 7 21 -8 33 -11 8 -14 14 -8 14 16 0 15 33 0 48 -7 7
-32 12 -57 11 -26 0 -40 -3 -33 -6z m77 -28 c0 -13 -8 -21 -22 -23 -19 -3 -23
1 -23 23 0 22 4 26 23 23 14 -2 22 -10 22 -23z m3 -47 c15 -15 -3 -38 -29 -38
-14 0 -19 7 -19 25 0 27 26 35 48 13z"/>
<path d="M1215 733 c15 -74 14 -73 44 -70 17 1 30 5 30 10 4 43 -1 77 -11 77
-8 0 -13 -14 -13 -37 0 -20 -6 -38 -12 -40 -9 -3 -13 8 -13 36 0 29 -4 41 -14
41 -8 0 -13 -7 -11 -17z"/>
<path d="M1310 741 c0 -4 12 -6 27 -3 l28 5 -28 -36 c-15 -19 -27 -38 -27 -41
0 -3 16 -6 35 -6 19 0 35 4 35 8 0 5 -14 6 -32 4 l-32 -5 33 42 33 41 -36 0
c-20 0 -36 -4 -36 -9z"/>
<path d="M1390 741 c0 -4 12 -6 27 -3 l28 5 -28 -36 c-15 -19 -27 -38 -27 -41
0 -3 16 -6 35 -6 19 0 35 4 35 8 0 5 -14 6 -32 4 l-32 -5 33 42 33 41 -36 0
c-20 0 -36 -4 -36 -9z"/>
<path d="M1481 736 c-28 -34 6 -88 45 -71 18 8 18 9 -3 12 -12 2 -27 11 -33
19 -10 12 -7 14 20 14 25 0 31 4 28 18 -4 22 -41 27 -57 8z m39 -6 c0 -5 -9
-10 -21 -10 -11 0 -17 5 -14 10 3 6 13 10 21 10 8 0 14 -4 14 -10z"/>
<path d="M1555 741 c-3 -6 -1 -11 4 -11 15 0 14 -57 -1 -63 -7 -3 0 -6 16 -6
23 -1 26 1 17 13 -7 8 -11 27 -9 42 3 27 -15 44 -27 25z"/>
<path d="M1605 740 c3 -5 8 -10 11 -10 2 0 4 5 4 10 0 6 -5 10 -11 10 -5 0 -7
-4 -4 -10z"/>
<path d="M4809 573 c-1 -5 0 -18 1 -30 1 -17 -3 -21 -14 -17 -36 14 -63 -49
-33 -74 14 -12 67 -11 67 1 0 4 0 34 0 67 0 33 -4 60 -10 60 -5 0 -10 -3 -11
-7z m-1 -82 c5 -34 -16 -51 -33 -27 -10 14 -11 24 -4 38 13 24 33 18 37 -11z"/>
<path d="M4548 563 c7 -3 12 -25 12 -58 0 -33 -5 -55 -12 -59 -7 -3 9 -4 36
-3 34 1 51 7 54 17 4 12 2 13 -9 3 -7 -7 -21 -13 -32 -13 -17 0 -18 7 -15 60
3 58 2 60 -22 59 -14 0 -19 -3 -12 -6z"/>
<path d="M4671 516 c-28 -34 6 -88 45 -71 18 8 18 9 -3 12 -12 2 -27 11 -33
19 -10 12 -7 14 20 14 25 0 31 4 28 18 -4 22 -41 27 -57 8z m39 -6 c0 -5 -9
-10 -21 -10 -11 0 -17 5 -14 10 3 6 13 10 21 10 8 0 14 -4 14 -10z"/>
<path d="M4853 513 c-6 -15 13 -36 41 -46 6 -2 7 -8 3 -13 -4 -4 -17 -3 -27 4
-16 10 -20 10 -20 -1 0 -9 10 -14 27 -13 38 1 42 31 7 49 -18 9 -23 17 -15 21
7 4 18 2 26 -4 12 -10 15 -10 15 2 0 20 -49 22 -57 1z"/>
<path d="M3561 6756 c-16 -19 -4 -44 30 -62 33 -16 37 -32 12 -41 -10 -4 -23
2 -35 16 l-18 23 0 -23 c0 -20 6 -24 32 -26 64 -5 77 36 23 69 -37 21 -41 40
-12 46 10 2 21 -6 26 -20 l10 -23 0 25 c1 21 -4 26 -28 28 -16 1 -34 -4 -40
-12z"/>
<path d="M3658 6763 c7 -3 12 -25 12 -58 0 -33 -5 -55 -12 -58 -7 -3 7 -6 32
-6 60 -1 90 20 90 63 0 47 -26 66 -86 65 -27 0 -43 -3 -36 -6z m86 -19 c33
-32 10 -94 -35 -94 -16 0 -19 7 -19 55 0 48 3 55 19 55 11 0 27 -7 35 -16z"/>
<path d="M3824 6704 c-26 -56 -28 -64 -13 -64 12 0 16 6 12 21 -5 18 -2 20 28
17 25 -2 34 -8 33 -20 -1 -13 6 -18 23 -18 22 0 23 2 10 15 -9 8 -23 37 -32
65 -9 27 -20 50 -23 49 -4 0 -21 -29 -38 -65z m45 9 c11 -21 9 -23 -13 -23
-24 0 -25 2 -14 25 6 14 12 24 13 23 1 -2 8 -13 14 -25z"/>
<path d="M4019 6768 c0 -2 -1 -31 -2 -66 -2 -60 -1 -62 23 -61 14 0 19 3 13 6
-9 3 -13 26 -13 64 0 33 -4 59 -10 59 -5 0 -10 -1 -11 -2z"/>
<path d="M4114 6745 c-18 -19 -24 -34 -22 -57 6 -62 73 -64 73 -2 0 22 -5 30
-22 32 -31 4 -29 18 5 36 20 11 22 15 9 16 -10 0 -29 -11 -43 -25z m36 -54
c11 -22 -3 -46 -24 -38 -10 4 -16 18 -16 36 0 23 4 29 15 25 9 -4 20 -14 25
-23z"/>
<path d="M4190 6654 c0 -3 7 -12 15 -20 13 -14 15 -13 15 5 0 12 -6 21 -15 21
-8 0 -15 -3 -15 -6z"/>
<path d="M3561 6536 c-16 -19 -4 -44 30 -62 33 -16 37 -32 12 -41 -10 -4 -23
2 -35 16 l-18 23 0 -23 c0 -20 6 -24 32 -26 64 -5 77 36 23 69 -37 21 -41 40
-12 46 10 2 21 -6 26 -20 l10 -23 0 25 c1 21 -4 26 -28 28 -16 1 -34 -4 -40
-12z"/>
<path d="M3680 6530 c-25 -25 -26 -72 -2 -93 24 -22 66 -22 83 1 11 14 11 15
-1 5 -24 -22 -59 -15 -72 12 -26 58 31 113 66 63 l16 -22 0 24 c0 21 -5 25
-35 27 -24 2 -41 -3 -55 -17z"/>
<path d="M3788 6543 c7 -3 12 -25 12 -58 0 -33 -5 -55 -12 -59 -7 -3 9 -4 36
-3 34 1 51 7 54 17 4 12 2 13 -9 3 -7 -7 -21 -13 -32 -13 -17 0 -18 7 -15 60
3 58 2 60 -22 59 -14 0 -19 -3 -12 -6z"/>
<path d="M3979 6548 c0 -2 -1 -31 -2 -66 -2 -60 -1 -62 23 -61 14 0 19 3 13 6
-9 3 -13 26 -13 64 0 33 -4 59 -10 59 -5 0 -10 -1 -11 -2z"/>
<path d="M4057 6537 c-4 -10 3 -12 24 -9 33 5 34 0 14 -58 -8 -24 -13 -45 -11
-47 2 -2 12 20 21 49 10 29 20 59 23 66 3 8 -7 12 -31 12 -20 0 -37 -6 -40
-13z"/>
<path d="M5479 6520 c-22 -13 -31 -53 -19 -84 10 -28 46 -42 85 -32 20 5 25
13 25 36 0 25 -4 30 -25 30 -14 0 -25 -4 -25 -10 0 -5 7 -10 15 -10 22 0 18
-27 -4 -33 -51 -13 -82 57 -39 87 28 20 33 20 53 0 20 -20 33 -11 15 11 -14
17 -56 19 -81 5z"/>
<path d="M5600 6465 c0 -37 4 -65 10 -65 6 0 10 11 10 24 0 19 7 25 34 30 66
13 54 76 -14 76 l-40 0 0 -65z m75 25 c0 -9 -11 -16 -27 -18 -23 -3 -28 1 -28
18 0 17 5 21 28 18 16 -2 27 -9 27 -18z"/>
<path d="M5720 6465 c0 -37 4 -65 10 -65 6 0 10 28 10 65 0 37 -4 65 -10 65
-6 0 -10 -28 -10 -65z"/>
<path d="M5780 6510 c-56 -56 21 -143 85 -96 13 9 19 26 19 51 0 61 -61 88
-104 45z m81 -22 c23 -43 -21 -89 -59 -62 -28 19 -28 59 -1 78 25 17 45 12 60
-16z"/>
<path d="M5983 6513 c-26 -17 -31 -35 -8 -27 12 5 15 -3 15 -40 0 -25 5 -46
10 -46 6 0 10 28 10 65 0 36 -1 65 -2 64 -2 0 -13 -7 -25 -16z"/>
<path d="M6058 6495 c-3 -29 -1 -35 11 -30 28 11 33 10 44 -7 9 -14 8 -21 -4
-34 -15 -14 -18 -14 -33 1 -9 10 -20 14 -23 11 -4 -4 0 -14 9 -23 21 -20 64
-10 73 17 8 26 -11 60 -35 60 -11 0 -20 5 -20 10 0 6 11 10 25 10 14 0 25 5
25 10 0 6 -15 10 -34 10 -31 0 -34 -3 -38 -35z"/>
<path d="M2720 5490 c-45 -45 -9 -116 57 -108 21 2 29 9 32 28 1 14 8 28 15
32 6 4 -2 8 -18 8 -24 0 -27 -2 -16 -15 30 -36 -21 -62 -53 -27 -19 21 -21 45
-7 73 13 24 56 25 69 2 10 -16 10 -16 11 2 0 30 -62 33 -90 5z"/>
<path d="M2838 5503 c7 -3 12 -25 12 -58 0 -33 -5 -55 -12 -58 -7 -3 3 -5 22
-5 19 0 29 2 23 5 -25 10 -14 40 17 47 23 4 30 11 30 29 0 34 -19 47 -64 46
-23 0 -35 -3 -28 -6z m67 -33 c0 -16 -6 -26 -17 -28 -14 -3 -18 3 -18 28 0 25
4 31 18 28 11 -2 17 -12 17 -28z"/>
<path d="M2955 5445 c0 -51 3 -65 15 -65 12 0 15 14 15 65 0 51 -3 65 -15 65
-12 0 -15 -14 -15 -65z"/>
<path d="M3027 5492 c-22 -25 -21 -75 1 -95 42 -38 102 -8 102 50 0 55 -67 85
-103 45z m71 -4 c7 -7 12 -26 12 -43 0 -52 -48 -76 -70 -36 -22 42 -6 91 30
91 9 0 21 -5 28 -12z"/>
<path d="M3229 5508 c0 -2 -1 -31 -2 -66 -2 -60 -1 -62 23 -61 14 0 19 3 13 6
-9 3 -13 26 -13 64 0 33 -4 59 -10 59 -5 0 -10 -1 -11 -2z"/>
<path d="M3312 5498 c-17 -17 -15 -55 4 -62 25 -10 41 -6 22 5 -22 12 -24 59
-3 59 43 0 36 -73 -9 -101 -22 -13 -26 -19 -13 -19 10 0 29 11 42 25 39 38 30
105 -15 105 -9 0 -21 -5 -28 -12z"/>
<path d="M5396 5341 c-26 -29 -18 -82 16 -100 38 -22 82 -5 86 32 3 24 0 27
-28 27 -18 0 -29 -4 -25 -10 3 -5 13 -10 21 -10 8 0 14 -4 14 -10 0 -17 -34
-28 -57 -19 -18 6 -23 16 -23 43 0 46 30 65 66 41 20 -13 24 -13 24 -1 0 30
-68 36 -94 7z"/>
<path d="M5520 5295 c0 -37 4 -65 10 -65 6 0 10 11 10 25 0 19 5 25 21 25 31
0 59 18 59 38 0 28 -21 42 -62 42 l-38 0 0 -65z m78 28 c-2 -11 -14 -19 -31
-21 -22 -3 -27 1 -27 17 0 17 6 21 31 21 24 0 30 -4 27 -17z"/>
<path d="M5640 5295 c0 -37 4 -65 10 -65 6 0 10 28 10 65 0 37 -4 65 -10 65
-6 0 -10 -28 -10 -65z"/>
<path d="M5707 5342 c-22 -25 -21 -75 1 -95 42 -38 102 -8 102 50 0 55 -67 85
-103 45z m64 -2 c27 -15 26 -75 -1 -90 -14 -8 -26 -8 -40 0 -26 14 -28 74 -2
89 21 13 20 13 43 1z"/>
<path d="M5907 5342 c-21 -23 -22 -39 -2 -22 13 11 15 6 15 -39 0 -28 5 -51
10 -51 6 0 10 28 10 65 0 68 -6 77 -33 47z"/>
<path d="M6003 5323 c-40 -49 -40 -53 -8 -53 16 0 28 -7 33 -19 7 -19 8 -18
19 5 6 13 7 24 3 24 -5 0 -10 19 -12 42 l-3 42 -32 -41z m27 -18 c0 -18 -5
-25 -20 -25 -20 0 -20 1 -4 25 9 14 18 25 20 25 2 0 4 -11 4 -25z"/>
<path d="M2720 5210 c-45 -45 -9 -116 57 -108 21 2 29 9 32 28 1 14 8 28 15
32 6 4 -2 8 -18 8 -24 0 -27 -2 -16 -15 30 -36 -21 -62 -53 -27 -19 21 -21 45
-7 73 13 24 56 25 69 2 10 -16 10 -16 11 2 0 30 -62 33 -90 5z"/>
<path d="M2838 5223 c7 -3 12 -25 12 -58 0 -33 -5 -55 -12 -58 -7 -3 3 -5 22
-5 19 0 29 2 23 5 -25 10 -14 40 17 47 23 4 30 11 30 29 0 34 -19 47 -64 46
-23 0 -35 -3 -28 -6z m67 -33 c0 -16 -6 -26 -17 -28 -14 -3 -18 3 -18 28 0 25
4 31 18 28 11 -2 17 -12 17 -28z"/>
<path d="M2955 5165 c0 -51 3 -65 15 -65 12 0 15 14 15 65 0 51 -3 65 -15 65
-12 0 -15 -14 -15 -65z"/>
<path d="M3027 5212 c-22 -25 -21 -75 1 -95 42 -38 102 -8 102 50 0 55 -67 85
-103 45z m71 -4 c7 -7 12 -26 12 -43 0 -52 -48 -76 -70 -36 -22 42 -6 91 30
91 9 0 21 -5 28 -12z"/>
<path d="M3212 5217 c-10 -12 -8 -13 12 -10 30 6 40 -10 25 -39 -11 -21 -11
-22 5 -9 24 20 17 65 -10 69 -11 2 -26 -3 -32 -11z"/>
<path d="M3310 5211 c-23 -44 -5 -111 30 -111 23 0 40 28 40 65 0 37 -17 65
-40 65 -11 0 -24 -9 -30 -19z m50 -15 c11 -30 -2 -81 -21 -81 -15 0 -25 64
-15 91 8 22 25 17 36 -10z"/>
<path d="M3214 5119 c-18 -20 -18 -20 21 -17 21 2 40 8 42 14 2 7 -6 10 -23 6
-19 -3 -25 -1 -20 7 11 18 1 13 -20 -10z"/>
<path d="M2720 4890 c-45 -45 -9 -116 57 -108 21 2 29 9 32 28 1 14 8 28 15
32 6 4 -2 8 -18 8 -24 0 -27 -2 -16 -15 30 -36 -21 -62 -53 -27 -19 21 -21 45
-7 73 13 24 56 25 69 2 10 -16 10 -16 11 2 0 30 -62 33 -90 5z"/>
<path d="M2838 4903 c7 -3 12 -25 12 -58 0 -33 -5 -55 -12 -58 -7 -3 3 -5 22
-5 19 0 29 2 23 5 -25 10 -14 40 17 47 23 4 30 11 30 29 0 34 -19 47 -64 46
-23 0 -35 -3 -28 -6z m67 -33 c0 -16 -6 -26 -17 -28 -14 -3 -18 3 -18 28 0 25
4 31 18 28 11 -2 17 -12 17 -28z"/>
<path d="M2955 4845 c0 -51 3 -65 15 -65 12 0 15 14 15 65 0 51 -3 65 -15 65
-12 0 -15 -14 -15 -65z"/>
<path d="M3027 4892 c-22 -25 -21 -75 1 -95 42 -38 102 -8 102 50 0 55 -67 85
-103 45z m71 -4 c7 -7 12 -26 12 -43 0 -52 -48 -76 -70 -36 -22 42 -6 91 30
91 9 0 21 -5 28 -12z"/>
<path d="M3212 4897 c-10 -12 -8 -13 12 -10 30 6 40 -10 25 -39 -11 -21 -11
-22 5 -9 24 20 17 65 -10 69 -11 2 -26 -3 -32 -11z"/>
<path d="M3329 4908 c0 -2 -1 -31 -2 -66 -2 -60 -1 -62 23 -61 14 0 19 3 13 6
-9 3 -13 26 -13 64 0 33 -4 59 -10 59 -5 0 -10 -1 -11 -2z"/>
<path d="M5400 4850 c-45 -45 -9 -116 57 -108 21 2 29 9 32 28 1 14 8 28 15
32 6 4 -2 8 -18 8 -24 0 -27 -2 -16 -15 30 -36 -21 -62 -53 -27 -19 21 -21 45
-7 73 13 24 56 25 69 2 10 -16 10 -16 11 2 0 30 -62 33 -90 5z"/>
<path d="M5518 4863 c7 -3 12 -25 12 -58 0 -33 -5 -55 -12 -58 -7 -3 3 -5 22
-5 19 0 29 2 23 5 -25 10 -14 40 17 47 23 4 30 11 30 29 0 34 -19 47 -64 46
-23 0 -35 -3 -28 -6z m67 -33 c0 -16 -6 -26 -17 -28 -14 -3 -18 3 -18 28 0 25
4 31 18 28 11 -2 17 -12 17 -28z"/>
<path d="M5635 4805 c0 -51 3 -65 15 -65 12 0 15 14 15 65 0 51 -3 65 -15 65
-12 0 -15 -14 -15 -65z"/>
<path d="M5707 4852 c-22 -25 -21 -75 1 -95 42 -38 102 -8 102 50 0 55 -67 85
-103 45z m71 -4 c7 -7 12 -26 12 -43 0 -52 -48 -76 -70 -36 -22 42 -6 91 30
91 9 0 21 -5 28 -12z"/>
<path d="M5909 4868 c0 -2 -1 -31 -2 -66 -2 -60 -1 -62 23 -61 14 0 19 3 13 6
-9 3 -13 26 -13 64 0 33 -4 59 -10 59 -5 0 -10 -1 -11 -2z"/>
<path d="M5995 4860 c-3 -6 1 -7 9 -4 22 9 34 -27 14 -40 -14 -8 -13 -11 5
-26 26 -21 14 -44 -19 -36 -14 4 -24 2 -24 -4 0 -14 43 -13 58 2 15 15 16 58
1 58 -8 0 -8 4 0 14 6 7 9 21 5 30 -7 18 -39 22 -49 6z"/>
<path d="M3214 4799 c-18 -20 -18 -20 21 -17 21 2 40 8 42 14 2 7 -6 10 -23 6
-19 -3 -25 -1 -20 7 11 18 1 13 -20 -10z"/>
<path d="M2720 4530 c-45 -45 -9 -116 57 -108 21 2 29 9 32 28 1 14 8 28 15
32 6 4 -2 8 -18 8 -24 0 -27 -2 -16 -15 30 -36 -21 -62 -53 -27 -19 21 -21 45
-7 73 13 24 56 25 69 2 10 -16 10 -16 11 2 0 30 -62 33 -90 5z"/>
<path d="M2838 4543 c7 -3 12 -25 12 -58 0 -33 -5 -55 -12 -58 -7 -3 3 -5 22
-5 19 0 29 2 23 5 -25 10 -14 40 17 47 23 4 30 11 30 29 0 34 -19 47 -64 46
-23 0 -35 -3 -28 -6z m67 -33 c0 -16 -6 -26 -17 -28 -14 -3 -18 3 -18 28 0 25
4 31 18 28 11 -2 17 -12 17 -28z"/>
<path d="M2955 4485 c0 -51 3 -65 15 -65 12 0 15 14 15 65 0 51 -3 65 -15 65
-12 0 -15 -14 -15 -65z"/>
<path d="M3027 4532 c-22 -25 -21 -75 1 -95 42 -38 102 -8 102 50 0 55 -67 85
-103 45z m71 -4 c7 -7 12 -26 12 -43 0 -52 -48 -76 -70 -36 -22 42 -6 91 30
91 9 0 21 -5 28 -12z"/>
<path d="M3212 4537 c-10 -12 -8 -13 12 -10 30 6 40 -10 25 -39 -11 -21 -11
-22 5 -9 24 20 17 65 -10 69 -11 2 -26 -3 -32 -11z"/>
<path d="M3312 4537 c-10 -12 -8 -13 12 -10 30 6 40 -10 25 -39 -11 -21 -11
-22 5 -9 24 20 17 65 -10 69 -11 2 -26 -3 -32 -11z"/>
<path d="M3214 4439 c-18 -20 -18 -20 21 -17 21 2 40 8 42 14 2 7 -6 10 -23 6
-19 -3 -25 -1 -20 7 11 18 1 13 -20 -10z"/>
<path d="M3314 4439 c-18 -20 -18 -20 21 -17 21 2 40 8 42 14 2 7 -6 10 -23 6
-19 -3 -25 -1 -20 7 11 18 1 13 -20 -10z"/>
<path d="M2710 3660 l0 -720 -367 2 -368 3 -3 223 -2 222 -530 0 -530 0 0
-455 0 -455 530 0 530 0 2 223 3 222 372 3 373 2 2 717 3 717 439 -3 c312 -2
436 1 431 8 -4 8 -142 11 -446 11 l-439 0 0 -720z m-750 -725 l0 -445 -520 0
-520 0 0 445 0 445 520 0 520 0 0 -445z"/>
<path d="M1156 3178 c-7 -37 -2 -45 18 -29 11 9 17 8 30 -4 8 -9 13 -22 10
-30 -9 -22 -33 -26 -43 -7 -5 9 -13 14 -17 10 -10 -11 15 -38 35 -38 23 0 41
20 41 46 0 26 -24 48 -45 40 -9 -3 -15 0 -15 9 0 10 10 15 30 15 17 0 30 5 30
10 0 6 -15 10 -34 10 -30 0 -34 -4 -40 -32z"/>
<path d="M1261 3196 c-18 -21 -10 -97 12 -110 28 -18 52 4 55 53 3 46 -10 71
-38 71 -10 0 -23 -6 -29 -14z m49 -51 c0 -37 -3 -45 -19 -45 -11 0 -21 9 -25
23 -8 34 4 67 25 67 16 0 19 -8 19 -45z"/>
<path d="M1600 3200 c0 -5 5 -10 10 -10 6 0 10 5 10 10 0 6 -4 10 -10 10 -5 0
-10 -4 -10 -10z"/>
<path d="M1422 3168 c-7 -7 -12 -24 -12 -38 0 -46 43 -67 70 -35 18 22 5 31
-15 11 -21 -20 -22 -20 -35 3 -17 32 -2 54 33 47 25 -5 28 -4 17 9 -15 18 -42
19 -58 3z"/>
<path d="M1511 3166 c-31 -37 9 -103 47 -80 36 23 23 94 -18 94 -10 0 -23 -6
-29 -14z m59 -36 c0 -11 -9 -24 -20 -30 -26 -14 -46 20 -30 50 9 16 15 18 30
10 11 -6 20 -19 20 -30z"/>
<path d="M1600 3130 c0 -27 5 -50 10 -50 6 0 10 23 10 50 0 28 -4 50 -10 50
-5 0 -10 -22 -10 -50z"/>
<path d="M1640 3128 c0 -26 5 -48 10 -48 6 0 10 18 10 39 0 24 5 41 14 44 20
8 26 -2 26 -45 0 -21 5 -38 10 -38 12 0 13 69 2 87 -4 6 -22 11 -40 11 -32 -1
-32 -2 -32 -50z"/>
<path d="M1340 3120 c0 -5 14 -10 30 -10 17 0 30 5 30 10 0 6 -13 10 -30 10
-16 0 -30 -4 -30 -10z"/>
<path d="M1081 2895 c1 -38 4 -60 6 -47 3 16 11 22 29 22 33 0 52 40 36 75 -9
20 -18 25 -42 23 l-30 -2 1 -71z m59 25 c0 -30 -21 -45 -39 -27 -23 23 -4 71
25 60 8 -3 14 -18 14 -33z"/>
<path d="M1182 2915 c1 -40 2 -43 5 -15 3 20 13 42 26 52 l22 18 -27 -2 c-27
-2 -28 -5 -26 -53z"/>
<path d="M1238 2945 c-24 -53 36 -103 72 -60 14 17 3 20 -20 5 -9 -5 -19 -5
-27 2 -22 18 -14 28 22 28 38 0 40 2 25 31 -16 28 -58 25 -72 -6z m62 -6 c0
-5 -11 -9 -25 -9 -26 0 -34 15 -12 23 16 5 37 -3 37 -14z"/>
<path d="M1340 2954 c-12 -14 -12 -18 5 -30 10 -8 25 -14 32 -14 7 0 13 -4 13
-9 0 -17 -21 -23 -36 -10 -8 6 -18 9 -21 5 -9 -9 16 -26 38 -26 21 0 43 26 34
40 -4 6 -18 15 -32 21 -13 5 -21 13 -18 19 4 7 13 6 27 -1 16 -9 19 -8 16 3
-7 20 -43 21 -58 2z"/>
<path d="M1428 2945 c-24 -53 36 -103 72 -60 14 17 3 20 -20 5 -9 -5 -19 -5
-27 2 -22 18 -14 28 22 28 38 0 40 2 25 31 -16 28 -58 25 -72 -6z m62 -6 c0
-5 -11 -9 -25 -9 -26 0 -34 15 -12 23 16 5 37 -3 37 -14z"/>
<path d="M1532 2916 c1 -42 2 -45 5 -14 8 71 47 70 56 -2 3 -23 4 -18 3 15 -1
49 -1 50 -33 51 l-33 1 2 -51z"/>
<path d="M1630 2951 c-14 -26 -13 -44 3 -66 17 -22 67 -14 67 12 0 15 -1 15
-18 0 -14 -13 -21 -14 -30 -5 -26 26 -2 79 25 56 15 -12 28 -5 18 11 -11 18
-54 12 -65 -8z"/>
<path d="M1718 2945 c-24 -53 36 -103 72 -60 14 17 3 20 -20 5 -9 -5 -19 -5
-27 2 -22 18 -14 28 22 28 38 0 40 2 25 31 -16 28 -58 25 -72 -6z m62 -6 c0
-5 -11 -9 -25 -9 -26 0 -34 15 -12 23 16 5 37 -3 37 -14z"/>
<path d="M1180 2734 c-12 -14 -12 -18 5 -30 10 -8 25 -14 32 -14 7 0 13 -4 13
-9 0 -17 -21 -23 -36 -10 -8 6 -18 9 -21 5 -9 -9 16 -26 38 -26 21 0 43 26 34
40 -4 6 -18 15 -32 21 -13 5 -21 13 -18 19 4 7 13 6 27 -1 16 -9 19 -8 16 3
-7 20 -43 21 -58 2z"/>
<path d="M1268 2725 c-24 -53 36 -103 72 -60 14 17 3 20 -20 5 -9 -5 -19 -5
-27 2 -22 18 -14 28 22 28 38 0 40 2 25 31 -16 28 -58 25 -72 -6z m62 -6 c0
-5 -11 -9 -25 -9 -26 0 -34 15 -12 23 16 5 37 -3 37 -14z"/>
<path d="M1372 2696 c1 -42 2 -45 5 -14 8 71 47 70 56 -2 3 -23 4 -18 3 15 -1
49 -1 50 -33 51 l-33 1 2 -51z"/>
<path d="M1470 2734 c-12 -14 -12 -18 5 -30 10 -8 25 -14 32 -14 7 0 13 -4 13
-9 0 -17 -21 -23 -36 -10 -8 6 -18 9 -21 5 -9 -9 16 -26 38 -26 21 0 43 26 34
40 -4 6 -18 15 -32 21 -13 5 -21 13 -18 19 4 7 13 6 27 -1 16 -9 19 -8 16 3
-7 20 -43 21 -58 2z"/>
<path d="M1558 2726 c-17 -39 3 -78 39 -74 35 4 50 29 37 65 -13 39 -59 45
-76 9z m62 -26 c0 -16 -6 -30 -12 -33 -24 -8 -38 5 -38 33 0 16 6 30 13 33 23
8 37 -5 37 -33z"/>
<path d="M1662 2695 c1 -40 2 -43 5 -15 3 20 13 42 26 52 l22 18 -27 -2 c-27
-2 -28 -5 -26 -53z"/>
<path d="M6910 3955 l0 -185 -890 0 c-587 0 -890 -3 -890 -10 0 -7 303 -10
890 -10 l890 0 0 -185 0 -185 905 0 905 0 0 380 0 380 -905 0 -905 0 0 -185z
m1800 -195 l0 -370 -895 0 -895 0 0 370 0 370 895 0 895 0 0 -370z"/>
<path d="M7175 3820 c3 -5 15 -10 25 -10 16 0 20 -9 23 -57 l3 -58 2 58 c2 54
3 57 27 57 14 0 25 5 25 10 0 6 -25 10 -56 10 -34 0 -53 -4 -49 -10z"/>
<path d="M7307 3812 c-35 -38 -10 -112 37 -112 26 0 56 19 56 35 0 20 -6 19
-30 -5 -16 -16 -25 -18 -40 -10 -27 15 -28 75 -1 90 25 13 27 13 46 -6 20 -20
33 -11 15 11 -17 21 -63 19 -83 -3z"/>
<path d="M7431 3816 c-17 -21 -3 -45 33 -54 42 -11 48 -42 8 -42 -17 0 -32 6
-35 13 -2 6 -8 9 -12 5 -13 -13 16 -38 44 -38 61 0 69 50 11 73 -22 8 -40 20
-40 26 0 14 47 14 55 1 12 -20 26 -10 15 10 -13 23 -61 27 -79 6z"/>
<path d="M7550 3815 c-7 -9 -10 -18 -6 -22 3 -4 12 2 20 12 7 10 18 15 24 11
21 -13 13 -44 -18 -66 -43 -31 -39 -50 10 -50 22 0 40 5 40 10 0 6 -12 10 -27
10 l-27 0 27 28 c29 31 34 51 15 70 -17 17 -43 15 -58 -3z"/>
<path d="M7650 3815 c-7 -9 -10 -18 -6 -22 3 -4 12 1 19 10 9 12 16 14 27 7
13 -9 12 -12 -4 -25 -17 -13 -17 -15 -3 -21 21 -8 22 -40 2 -48 -8 -3 -19 2
-24 12 -5 9 -13 14 -17 10 -4 -4 -1 -15 6 -23 29 -35 87 6 63 44 -8 13 -9 21
-1 29 8 8 8 15 -2 27 -16 19 -44 19 -60 0z"/>
<path d="M7751 3816 c-18 -21 -10 -97 12 -110 28 -18 52 4 55 53 3 46 -10 71
-38 71 -10 0 -23 -6 -29 -14z m49 -51 c0 -37 -3 -45 -19 -45 -11 0 -21 9 -25
23 -8 34 4 67 25 67 16 0 19 -8 19 -45z"/>
<path d="M7901 3816 c-17 -21 -3 -45 33 -54 42 -11 48 -42 8 -42 -17 0 -32 6
-35 13 -2 6 -8 9 -12 5 -13 -13 16 -38 44 -38 61 0 69 50 11 73 -22 8 -40 20
-40 26 0 14 47 14 55 1 12 -20 26 -10 15 10 -13 23 -61 27 -79 6z"/>
<path d="M8022 3788 c-17 -17 -15 -63 3 -78 16 -13 65 -6 65 10 0 13 -13 13
-27 -1 -7 -7 -16 -5 -29 8 -17 17 -17 18 19 21 38 3 47 18 25 40 -7 7 -19 12
-28 12 -9 0 -21 -5 -28 -12z m46 -16 c2 -7 -6 -12 -17 -12 -21 0 -27 11 -14
24 9 9 26 2 31 -12z"/>
<path d="M8110 3748 c0 -26 5 -48 10 -48 6 0 10 18 10 39 0 24 5 41 14 44 20
8 26 -2 26 -45 0 -21 5 -38 10 -38 12 0 13 69 2 87 -4 6 -22 11 -40 11 -32 -1
-32 -2 -32 -50z"/>
<path d="M8217 3793 c-15 -14 -5 -33 24 -49 24 -12 28 -18 18 -24 -7 -5 -21
-4 -32 2 -15 8 -18 7 -15 -4 3 -7 18 -13 34 -13 22 0 30 5 32 21 2 17 -5 24
-30 33 -26 9 -30 14 -18 21 9 5 19 5 27 -2 15 -13 28 -4 18 11 -7 12 -48 15
-58 4z"/>
<path d="M8311 3786 c-31 -37 9 -103 47 -80 36 23 23 94 -18 94 -10 0 -23 -6
-29 -14z m59 -36 c0 -11 -9 -24 -20 -30 -15 -8 -21 -6 -30 10 -16 30 4 64 30
50 11 -6 20 -19 20 -30z"/>
<path d="M8400 3750 c0 -61 18 -67 22 -7 2 27 7 41 16 40 6 -2 12 2 12 7 0 6
-11 10 -25 10 -23 0 -25 -3 -25 -50z"/>
<path d="M5329 3970 c-22 -13 -31 -53 -19 -84 10 -28 46 -42 85 -32 20 5 25
13 25 36 0 25 -4 30 -25 30 -14 0 -25 -4 -25 -10 0 -5 7 -10 15 -10 22 0 18
-27 -4 -33 -51 -13 -82 57 -39 87 28 20 33 20 53 0 20 -20 33 -11 15 11 -14
17 -56 19 -81 5z"/>
<path d="M5450 3915 c0 -37 4 -65 10 -65 6 0 10 11 10 24 0 19 7 25 34 30 66
13 54 76 -14 76 l-40 0 0 -65z m75 25 c0 -9 -11 -16 -27 -18 -23 -3 -28 1 -28
18 0 17 5 21 28 18 16 -2 27 -9 27 -18z"/>
<path d="M5570 3915 c0 -37 4 -65 10 -65 6 0 10 28 10 65 0 37 -4 65 -10 65
-6 0 -10 -28 -10 -65z"/>
<path d="M5630 3960 c-56 -56 21 -143 85 -96 13 9 19 26 19 51 0 61 -61 88
-104 45z m81 -22 c23 -43 -21 -89 -59 -62 -28 19 -28 59 -1 78 25 17 45 12 60
-16z"/>
<path d="M5816 3965 c-18 -19 -21 -67 -6 -96 15 -28 58 -25 71 5 16 34 -5 70
-37 63 -26 -5 -31 2 -12 21 8 8 17 8 31 1 15 -9 18 -8 15 3 -7 19 -43 21 -62
3z m54 -69 c0 -22 -22 -37 -37 -25 -17 14 -17 46 0 52 15 5 37 -11 37 -27z"/>
<path d="M5950 3970 c0 -5 13 -10 29 -10 l29 0 -19 -40 c-21 -43 -24 -70 -9
-70 6 0 10 8 10 19 0 10 11 39 25 65 l24 46 -44 0 c-25 0 -45 -4 -45 -10z"/>
<path d="M6114 3966 c-3 -8 -4 -20 -3 -27 1 -8 -2 -22 -6 -33 -11 -25 6 -50
38 -54 31 -4 53 28 39 55 -5 9 -7 25 -4 35 8 33 -52 55 -64 24z m46 -22 c0
-14 -21 -19 -33 -7 -9 9 13 34 24 27 5 -3 9 -12 9 -20z m1 -68 c-16 -19 -41
-10 -41 14 0 24 21 31 39 14 11 -10 12 -16 2 -28z"/>
<path d="M6262 3968 c-28 -28 0 -75 39 -65 15 4 19 2 15 -10 -3 -8 -6 -17 -6
-19 0 -2 -9 -4 -20 -4 -11 0 -20 5 -20 10 0 6 -5 10 -10 10 -7 0 -7 -6 0 -20
22 -41 80 -8 80 45 0 48 -49 82 -78 53z m49 -42 c-16 -19 -41 -10 -41 14 0 24
21 31 39 14 11 -10 12 -16 2 -28z"/>
<path d="M6433 3963 c-26 -17 -31 -35 -8 -27 12 5 15 -3 15 -40 0 -25 5 -46
10 -46 6 0 10 28 10 65 0 36 -1 65 -2 64 -2 0 -13 -7 -25 -16z"/>
<path d="M6510 3961 c-23 -43 -5 -111 29 -111 27 0 45 27 45 65 0 58 -50 89
-74 46z m60 -46 c0 -38 -20 -61 -38 -43 -29 29 -5 111 25 87 7 -7 13 -26 13
-44z"/>
<path d="M5913 3845 c0 -13 3 -22 8 -19 5 3 9 14 9 25 0 10 -4 19 -9 19 -5 0
-8 -11 -8 -25z"/>
<path d="M6063 3845 c0 -13 3 -22 8 -19 5 3 9 14 9 25 0 10 -4 19 -9 19 -5 0
-8 -11 -8 -25z"/>
<path d="M6213 3845 c0 -13 3 -22 8 -19 5 3 9 14 9 25 0 10 -4 19 -9 19 -5 0
-8 -11 -8 -25z"/>
<path d="M6363 3845 c0 -13 3 -22 8 -19 5 3 9 14 9 25 0 10 -4 19 -9 19 -5 0
-8 -11 -8 -25z"/>
<path d="M2860 3710 c-45 -45 -9 -116 57 -108 21 2 29 9 32 28 1 14 8 28 15
32 6 4 -2 8 -18 8 -24 0 -27 -2 -16 -15 30 -36 -21 -62 -53 -27 -19 21 -21 45
-7 73 13 24 56 25 69 2 10 -16 10 -16 11 2 0 30 -62 33 -90 5z"/>
<path d="M2978 3723 c7 -3 12 -25 12 -58 0 -33 -5 -55 -12 -58 -7 -3 3 -5 22
-5 19 0 29 2 23 5 -25 10 -14 40 17 47 23 4 30 11 30 29 0 34 -19 47 -64 46
-23 0 -35 -3 -28 -6z m67 -33 c0 -16 -6 -26 -17 -28 -14 -3 -18 3 -18 28 0 25
4 31 18 28 11 -2 17 -12 17 -28z"/>
<path d="M3095 3665 c0 -51 3 -65 15 -65 12 0 15 14 15 65 0 51 -3 65 -15 65
-12 0 -15 -14 -15 -65z"/>
<path d="M3167 3712 c-22 -25 -21 -75 1 -95 42 -38 102 -8 102 50 0 55 -67 85
-103 45z m71 -4 c7 -7 12 -26 12 -43 0 -52 -48 -76 -70 -36 -22 42 -6 91 30
91 9 0 21 -5 28 -12z"/>
<path d="M3352 3717 c-10 -12 -8 -13 12 -10 30 6 40 -10 25 -39 -11 -21 -11
-22 5 -9 24 20 17 65 -10 69 -11 2 -26 -3 -32 -11z"/>
<path d="M3464 3705 c-18 -19 -24 -34 -22 -57 6 -62 73 -64 73 -2 0 22 -5 30
-22 32 -31 4 -29 18 5 36 20 11 22 15 9 16 -10 0 -29 -11 -43 -25z m36 -54
c11 -22 -3 -46 -24 -38 -10 4 -16 18 -16 36 0 23 4 29 15 25 9 -4 20 -14 25
-23z"/>
<path d="M3354 3619 c-18 -20 -18 -20 21 -17 21 2 40 8 42 14 2 7 -6 10 -23 6
-19 -3 -25 -1 -20 7 11 18 1 13 -20 -10z"/>
<path d="M5679 3520 c-22 -13 -31 -53 -19 -84 10 -28 46 -42 85 -32 20 5 25
13 25 36 0 25 -4 30 -25 30 -14 0 -25 -4 -25 -10 0 -5 7 -10 15 -10 22 0 18
-27 -4 -33 -51 -13 -82 57 -39 87 28 20 33 20 53 0 20 -20 33 -11 15 11 -14
17 -56 19 -81 5z"/>
<path d="M5800 3465 c0 -37 4 -65 10 -65 6 0 10 11 10 24 0 19 7 25 34 30 66
13 54 76 -14 76 l-40 0 0 -65z m75 25 c0 -9 -11 -16 -27 -18 -23 -3 -28 1 -28
18 0 17 5 21 28 18 16 -2 27 -9 27 -18z"/>
<path d="M5920 3465 c0 -37 4 -65 10 -65 6 0 10 28 10 65 0 37 -4 65 -10 65
-6 0 -10 -28 -10 -65z"/>
<path d="M5980 3510 c-56 -56 21 -143 85 -96 13 9 19 26 19 51 0 61 -61 88
-104 45z m81 -22 c23 -43 -21 -89 -59 -62 -28 19 -28 59 -1 78 25 17 45 12 60
-16z"/>
<path d="M6158 3495 c-3 -29 -1 -35 11 -30 28 11 33 10 44 -7 9 -14 8 -21 -4
-34 -15 -14 -18 -14 -33 1 -9 10 -20 14 -23 11 -4 -4 0 -14 9 -23 21 -20 64
-10 73 17 8 26 -11 60 -35 60 -11 0 -20 5 -20 10 0 6 11 10 25 10 14 0 25 5
25 10 0 6 -15 10 -34 10 -31 0 -34 -3 -38 -35z"/>
<path d="M5145 2940 c4 -6 135 -10 361 -10 l354 0 0 -300 0 -300 448 -2 447
-3 3 -222 2 -223 530 0 530 0 0 455 0 455 -530 0 -530 0 0 -225 0 -225 -442 2
-443 3 -3 296 -2 296 -242 6 c-347 10 -490 9 -483 -3z m2665 -605 l0 -445
-520 0 -520 0 0 445 0 445 520 0 520 0 0 -445z"/>
<path d="M6920 2445 l0 -65 40 0 c44 0 68 27 52 57 -5 9 -7 25 -4 35 6 25 -13
38 -55 38 l-33 0 0 -65z m70 30 c0 -9 -9 -15 -25 -15 -16 0 -25 6 -25 15 0 9
9 15 25 15 16 0 25 -6 25 -15z m5 -55 c0 -9 -11 -16 -27 -18 -23 -3 -28 1 -28
18 0 17 5 21 28 18 16 -2 27 -9 27 -18z"/>
<path d="M7243 2445 c0 -38 1 -61 4 -50 8 33 19 37 33 10 7 -14 17 -25 22 -25
12 0 10 8 -8 36 -16 23 -15 26 1 44 15 17 16 20 3 20 -9 0 -18 -7 -22 -15 -9
-26 -25 -17 -29 18 -2 17 -4 1 -4 -38z"/>
<path d="M7533 2496 c-11 -20 -2 -108 12 -113 6 -2 9 21 8 58 -2 67 -6 79 -20
55z"/>
<path d="M7047 2474 c-14 -15 -6 -24 11 -15 13 7 23 6 31 -2 9 -9 4 -14 -21
-23 -22 -7 -33 -17 -33 -30 0 -15 8 -19 40 -20 l41 -2 -6 47 c-4 40 -8 46 -30
49 -14 2 -29 0 -33 -4z m39 -69 c-19 -14 -36 -12 -36 6 0 5 12 9 28 9 26 -1
26 -1 8 -15z"/>
<path d="M7142 2426 c1 -42 2 -45 5 -14 8 71 47 70 56 -2 3 -23 4 -18 3 15 -1
49 -1 50 -33 51 l-33 1 2 -51z"/>
<path d="M7332 2426 c1 -42 2 -45 5 -14 8 71 47 70 56 -2 3 -23 4 -18 3 15 -1
49 -1 50 -33 51 l-33 1 2 -51z"/>
<path d="M7428 2456 c-17 -39 3 -78 39 -74 35 4 50 29 37 65 -13 39 -59 45
-76 9z m62 -26 c0 -16 -6 -30 -12 -33 -24 -8 -38 5 -38 33 0 16 6 30 13 33 23
8 37 -5 37 -33z"/>
<path d="M7578 2455 c-24 -53 36 -103 72 -60 14 17 3 20 -20 5 -9 -5 -19 -5
-27 2 -22 18 -14 28 22 28 38 0 40 2 25 31 -16 28 -58 25 -72 -6z m62 -6 c0
-5 -11 -9 -25 -9 -26 0 -34 15 -12 23 16 5 37 -3 37 -14z"/>
<path d="M7323 2276 c-11 -20 -2 -108 12 -113 6 -2 9 21 8 58 -2 67 -6 79 -20
55z"/>
<path d="M7072 2206 c1 -41 2 -44 5 -16 9 69 43 77 43 9 0 -21 5 -39 10 -39 6
0 10 18 10 40 0 33 3 40 19 40 16 0 21 -9 24 -42 4 -39 4 -38 3 7 l-1 50 -57
1 -58 1 2 -51z"/>
<path d="M7218 2236 c-17 -39 3 -78 39 -74 35 4 50 29 37 65 -13 39 -59 45
-76 9z m62 -26 c0 -16 -6 -30 -12 -33 -24 -8 -38 5 -38 33 0 16 6 30 13 33 23
8 37 -5 37 -33z"/>
<path d="M7368 2236 c-17 -39 3 -78 39 -74 35 4 50 29 37 65 -13 39 -59 45
-76 9z m62 -26 c0 -16 -6 -30 -12 -33 -24 -8 -38 5 -38 33 0 16 6 30 13 33 23
8 37 -5 37 -33z"/>
<path d="M7472 2205 c1 -40 2 -43 5 -15 3 20 13 42 26 52 l22 18 -27 -2 c-27
-2 -28 -5 -26 -53z"/>
<path d="M6046 2491 c-26 -29 -18 -82 16 -100 38 -22 82 -5 86 32 3 24 0 27
-28 27 -18 0 -29 -4 -25 -10 3 -5 13 -10 21 -10 8 0 14 -4 14 -10 0 -17 -34
-28 -57 -19 -18 6 -23 16 -23 43 0 46 30 65 66 41 20 -13 24 -13 24 -1 0 30
-68 36 -94 7z"/>
<path d="M6170 2445 c0 -37 4 -65 10 -65 6 0 10 11 10 25 0 19 5 25 21 25 31
0 59 18 59 38 0 28 -21 42 -62 42 l-38 0 0 -65z m78 28 c-2 -11 -14 -19 -31
-21 -22 -3 -27 1 -27 17 0 17 6 21 31 21 24 0 30 -4 27 -17z"/>
<path d="M6290 2445 c0 -37 4 -65 10 -65 6 0 10 28 10 65 0 37 -4 65 -10 65
-6 0 -10 -28 -10 -65z"/>
<path d="M6357 2492 c-22 -25 -21 -75 1 -95 42 -38 102 -8 102 50 0 55 -67 85
-103 45z m64 -2 c27 -15 26 -75 -1 -90 -14 -8 -26 -8 -40 0 -26 14 -28 74 -2
89 21 13 20 13 43 1z"/>
<path d="M6553 2473 c-40 -49 -40 -53 -8 -53 16 0 28 -7 33 -19 7 -19 8 -18
19 5 6 13 7 24 3 24 -5 0 -10 19 -12 42 l-3 42 -32 -41z m27 -18 c0 -18 -5
-25 -20 -25 -20 0 -20 1 -4 25 9 14 18 25 20 25 2 0 4 -11 4 -25z"/>
<path d="M4950 1840 c-45 -45 -9 -116 57 -108 21 2 29 9 32 28 1 14 8 28 15
32 6 4 -2 8 -18 8 -24 0 -27 -2 -16 -15 30 -36 -21 -62 -53 -27 -19 21 -21 45
-7 73 13 24 56 25 69 2 10 -16 10 -16 11 2 0 30 -62 33 -90 5z"/>
<path d="M5068 1853 c7 -3 12 -25 12 -58 0 -33 -5 -55 -12 -58 -7 -3 3 -5 22
-5 19 0 29 2 23 5 -25 10 -14 40 17 47 23 4 30 11 30 29 0 34 -19 47 -64 46
-23 0 -35 -3 -28 -6z m67 -33 c0 -16 -6 -26 -17 -28 -14 -3 -18 3 -18 28 0 25
4 31 18 28 11 -2 17 -12 17 -28z"/>
<path d="M5185 1795 c0 -51 3 -65 15 -65 12 0 15 14 15 65 0 51 -3 65 -15 65
-12 0 -15 -14 -15 -65z"/>
<path d="M5257 1842 c-22 -25 -21 -75 1 -95 42 -38 102 -8 102 50 0 55 -67 85
-103 45z m71 -4 c7 -7 12 -26 12 -43 0 -52 -48 -76 -70 -36 -22 42 -6 91 30
91 9 0 21 -5 28 -12z"/>
<path d="M5442 1847 c-10 -12 -8 -13 12 -10 30 6 40 -10 25 -39 -11 -21 -11
-22 5 -9 24 20 17 65 -10 69 -11 2 -26 -3 -32 -11z"/>
<path d="M5444 1749 c-18 -20 -18 -20 21 -17 21 2 40 8 42 14 2 7 -6 10 -23 6
-19 -3 -25 -1 -20 7 11 18 1 13 -20 -10z"/>
<path d="M5960 1500 c-45 -45 -9 -116 57 -108 21 2 29 9 32 28 1 14 8 28 15
32 6 4 -2 8 -18 8 -24 0 -27 -2 -16 -15 30 -36 -21 -62 -53 -27 -19 21 -21 45
-7 73 13 24 56 25 69 2 10 -16 10 -16 11 2 0 30 -62 33 -90 5z"/>
<path d="M6078 1513 c7 -3 12 -25 12 -58 0 -33 -5 -55 -12 -58 -7 -3 3 -5 22
-5 19 0 29 2 23 5 -25 10 -14 40 17 47 23 4 30 11 30 29 0 34 -19 47 -64 46
-23 0 -35 -3 -28 -6z m67 -33 c0 -16 -6 -26 -17 -28 -14 -3 -18 3 -18 28 0 25
4 31 18 28 11 -2 17 -12 17 -28z"/>
<path d="M6195 1455 c0 -51 3 -65 15 -65 12 0 15 14 15 65 0 51 -3 65 -15 65
-12 0 -15 -14 -15 -65z"/>
<path d="M6267 1502 c-22 -25 -21 -75 1 -95 42 -38 102 -8 102 50 0 55 -67 85
-103 45z m71 -4 c7 -7 12 -26 12 -43 0 -52 -48 -76 -70 -36 -22 42 -6 91 30
91 9 0 21 -5 28 -12z"/>
<path d="M6455 1510 c-3 -6 1 -7 9 -4 22 9 34 -27 14 -40 -14 -8 -13 -11 5
-26 26 -21 14 -44 -19 -36 -14 4 -24 2 -24 -4 0 -14 43 -13 58 2 15 15 16 58
1 58 -8 0 -8 4 0 14 6 7 9 21 5 30 -7 18 -39 22 -49 6z"/>
<path d="M2150 890 c-45 -45 -9 -116 57 -108 21 2 29 9 32 28 1 14 8 28 15 32
6 4 -2 8 -18 8 -24 0 -27 -2 -16 -15 30 -36 -21 -62 -53 -27 -19 21 -21 45 -7
73 13 24 56 25 69 2 10 -16 10 -16 11 2 0 30 -62 33 -90 5z"/>
<path d="M2268 903 c7 -3 12 -25 12 -58 0 -33 -5 -55 -12 -58 -7 -3 3 -5 22
-5 19 0 29 2 23 5 -25 10 -14 40 17 47 23 4 30 11 30 29 0 34 -19 47 -64 46
-23 0 -35 -3 -28 -6z m67 -33 c0 -16 -6 -26 -17 -28 -14 -3 -18 3 -18 28 0 25
4 31 18 28 11 -2 17 -12 17 -28z"/>
<path d="M2385 845 c0 -51 3 -65 15 -65 12 0 15 14 15 65 0 51 -3 65 -15 65
-12 0 -15 -14 -15 -65z"/>
<path d="M2457 892 c-22 -25 -21 -75 1 -95 42 -38 102 -8 102 50 0 55 -67 85
-103 45z m71 -4 c7 -7 12 -26 12 -43 0 -52 -48 -76 -70 -36 -22 42 -6 91 30
91 9 0 21 -5 28 -12z"/>
<path d="M2642 897 c-10 -12 -8 -13 12 -10 30 6 40 -10 25 -39 -11 -21 -11
-22 5 -9 24 20 17 65 -10 69 -11 2 -26 -3 -32 -11z"/>
<path d="M2737 897 c-4 -10 3 -12 24 -9 33 5 34 0 14 -58 -8 -24 -13 -45 -11
-47 2 -2 12 20 21 49 10 29 20 59 23 66 3 8 -7 12 -31 12 -20 0 -37 -6 -40
-13z"/>
<path d="M2644 799 c-18 -20 -18 -20 21 -17 21 2 40 8 42 14 2 7 -6 10 -23 6
-19 -3 -25 -1 -20 7 11 18 1 13 -20 -10z"/>
<path d="M3510 670 c-45 -45 -9 -116 57 -108 21 2 29 9 32 28 1 14 8 28 15 32
6 4 -2 8 -18 8 -24 0 -27 -2 -16 -15 30 -36 -21 -62 -53 -27 -19 21 -21 45 -7
73 13 24 56 25 69 2 10 -16 10 -16 11 2 0 30 -62 33 -90 5z"/>
<path d="M3628 683 c7 -3 12 -25 12 -58 0 -33 -5 -55 -12 -58 -7 -3 3 -5 22
-5 19 0 29 2 23 5 -25 10 -14 40 17 47 23 4 30 11 30 29 0 34 -19 47 -64 46
-23 0 -35 -3 -28 -6z m67 -33 c0 -16 -6 -26 -17 -28 -14 -3 -18 3 -18 28 0 25
4 31 18 28 11 -2 17 -12 17 -28z"/>
<path d="M3745 625 c0 -51 3 -65 15 -65 12 0 15 14 15 65 0 51 -3 65 -15 65
-12 0 -15 -14 -15 -65z"/>
<path d="M3817 672 c-22 -25 -21 -75 1 -95 42 -38 102 -8 102 50 0 55 -67 85
-103 45z m71 -4 c7 -7 12 -26 12 -43 0 -52 -48 -76 -70 -36 -22 42 -6 91 30
91 9 0 21 -5 28 -12z"/>
<path d="M4002 677 c-10 -12 -8 -13 12 -10 30 6 40 -10 25 -39 -11 -21 -11
-22 5 -9 24 20 17 65 -10 69 -11 2 -26 -3 -32 -11z"/>
<path d="M4103 674 c-3 -9 -1 -24 5 -34 8 -13 7 -21 -5 -33 -14 -13 -14 -19
-3 -32 17 -20 49 -16 64 8 9 16 5 23 -23 47 -32 27 -35 50 -5 50 8 0 14 -10
14 -22 0 -18 2 -20 10 -8 11 18 -5 40 -32 40 -10 0 -21 -7 -25 -16z m51 -80
c7 -18 -21 -31 -36 -16 -15 15 -2 43 16 36 8 -3 17 -12 20 -20z"/>
<path d="M4004 579 c-18 -20 -18 -20 21 -17 21 2 40 8 42 14 2 7 -6 10 -23 6
-19 -3 -25 -1 -20 7 11 18 1 13 -20 -10z"/>
</g>
</svg>
